<mxfile host="app.diagrams.net" modified="2021-12-27T03:15:39.668Z" agent="5.0 (Windows)" etag="T9ubWyXKy8s1lECyrSNQ" version="16.0.3" type="github" pages="6">
  <diagram name="PDUAT_scnerioA" id="bi1Jk6Yno6CnkrtcfjvV">
    <mxGraphModel dx="1998" dy="1080" grid="1" gridSize="10" guides="1" tooltips="1" connect="1" arrows="1" fold="1" page="1" pageScale="1" pageWidth="827" pageHeight="1169" math="0" shadow="0">
      <root>
        <mxCell id="GChpjfw3P1T6bSBSSE3--0" />
        <mxCell id="GChpjfw3P1T6bSBSSE3--1" style="" parent="GChpjfw3P1T6bSBSSE3--0" />
        <mxCell id="GChpjfw3P1T6bSBSSE3--2" value="" style="shape=table;html=1;whiteSpace=wrap;startSize=0;container=1;collapsible=0;childLayout=tableLayout;fillColor=none;fontFamily=Montserrat;fontSource=https%3A%2F%2Ffonts.googleapis.com%2Fcss%3Ffamily%3DMontserrat;fontSize=15;strokeColor=#666666;fontColor=#46495D;sketch=1;" parent="GChpjfw3P1T6bSBSSE3--1" vertex="1">
          <mxGeometry x="50" y="110" width="453" height="600" as="geometry" />
        </mxCell>
        <mxCell id="GChpjfw3P1T6bSBSSE3--3" value="" style="shape=partialRectangle;html=1;whiteSpace=wrap;collapsible=0;dropTarget=0;pointerEvents=0;fillColor=none;top=0;left=0;bottom=0;right=0;points=[[0,0.5],[1,0.5]];portConstraint=eastwest;strokeColor=#788AA3;fontColor=#46495D;sketch=1;" parent="GChpjfw3P1T6bSBSSE3--2" vertex="1">
          <mxGeometry width="453" height="54" as="geometry" />
        </mxCell>
        <mxCell id="GChpjfw3P1T6bSBSSE3--4" value="対象者" style="shape=partialRectangle;html=1;whiteSpace=wrap;connectable=0;top=0;left=0;bottom=0;right=0;overflow=hidden;fontFamily=Montserrat;fontSource=https%3A%2F%2Ffonts.googleapis.com%2Fcss%3Ffamily%3DMontserrat;fillColor=#FFE6CC;opacity=40;strokeColor=#788AA3;fontColor=#46495D;labelBackgroundColor=none;labelBorderColor=none;fontStyle=0;fontSize=15;sketch=1;" parent="GChpjfw3P1T6bSBSSE3--3" vertex="1">
          <mxGeometry width="100" height="54" as="geometry">
            <mxRectangle width="100" height="54" as="alternateBounds" />
          </mxGeometry>
        </mxCell>
        <mxCell id="GChpjfw3P1T6bSBSSE3--5" value="&lt;div&gt;ユーザー&lt;/div&gt;" style="shape=partialRectangle;html=1;whiteSpace=wrap;connectable=0;fillColor=#FFE6CC;top=0;left=0;bottom=0;right=0;overflow=hidden;fontFamily=Montserrat;fontSource=https%3A%2F%2Ffonts.googleapis.com%2Fcss%3Ffamily%3DMontserrat;strokeColor=#788AA3;fontColor=#46495D;fontSize=14;sketch=1;" parent="GChpjfw3P1T6bSBSSE3--3" vertex="1">
          <mxGeometry x="100" width="176" height="54" as="geometry">
            <mxRectangle width="176" height="54" as="alternateBounds" />
          </mxGeometry>
        </mxCell>
        <mxCell id="GChpjfw3P1T6bSBSSE3--6" value="&lt;div&gt;文書管理者&lt;/div&gt;" style="shape=partialRectangle;html=1;whiteSpace=wrap;connectable=0;fillColor=#FFE6CC;top=0;left=0;bottom=0;right=0;overflow=hidden;fontFamily=Montserrat;fontSource=https%3A%2F%2Ffonts.googleapis.com%2Fcss%3Ffamily%3DMontserrat;strokeColor=#788AA3;fontColor=#46495D;fontSize=14;sketch=1;" parent="GChpjfw3P1T6bSBSSE3--3" vertex="1">
          <mxGeometry x="276" width="177" height="54" as="geometry">
            <mxRectangle width="177" height="54" as="alternateBounds" />
          </mxGeometry>
        </mxCell>
        <mxCell id="GChpjfw3P1T6bSBSSE3--9" value="" style="shape=partialRectangle;html=1;whiteSpace=wrap;collapsible=0;dropTarget=0;pointerEvents=0;fillColor=none;top=0;left=0;bottom=0;right=0;points=[[0,0.5],[1,0.5]];portConstraint=eastwest;strokeColor=#788AA3;fontColor=#46495D;sketch=1;" parent="GChpjfw3P1T6bSBSSE3--2" vertex="1">
          <mxGeometry y="54" width="453" height="546" as="geometry" />
        </mxCell>
        <mxCell id="GChpjfw3P1T6bSBSSE3--10" value="シナリオ" style="shape=partialRectangle;html=1;whiteSpace=wrap;connectable=0;top=0;left=0;bottom=0;right=0;overflow=hidden;fontFamily=Montserrat;fontSource=https%3A%2F%2Ffonts.googleapis.com%2Fcss%3Ffamily%3DMontserrat;fillColor=#B2C9AB;opacity=40;strokeColor=#788AA3;fontColor=#46495D;labelBackgroundColor=none;labelBorderColor=none;fontStyle=0;fontSize=15;sketch=1;" parent="GChpjfw3P1T6bSBSSE3--9" vertex="1">
          <mxGeometry width="100" height="546" as="geometry">
            <mxRectangle width="100" height="546" as="alternateBounds" />
          </mxGeometry>
        </mxCell>
        <mxCell id="GChpjfw3P1T6bSBSSE3--11" value="" style="shape=partialRectangle;html=1;whiteSpace=wrap;connectable=0;fillColor=none;top=0;left=0;bottom=0;right=0;overflow=hidden;fontFamily=Montserrat;fontSource=https%3A%2F%2Ffonts.googleapis.com%2Fcss%3Ffamily%3DMontserrat;strokeColor=#788AA3;fontColor=#46495D;sketch=1;" parent="GChpjfw3P1T6bSBSSE3--9" vertex="1">
          <mxGeometry x="100" width="176" height="546" as="geometry">
            <mxRectangle width="176" height="546" as="alternateBounds" />
          </mxGeometry>
        </mxCell>
        <mxCell id="GChpjfw3P1T6bSBSSE3--12" style="shape=partialRectangle;html=1;whiteSpace=wrap;connectable=0;fillColor=none;top=0;left=0;bottom=0;right=0;overflow=hidden;fontFamily=Montserrat;fontSource=https%3A%2F%2Ffonts.googleapis.com%2Fcss%3Ffamily%3DMontserrat;strokeColor=#788AA3;fontColor=#46495D;sketch=1;" parent="GChpjfw3P1T6bSBSSE3--9" vertex="1">
          <mxGeometry x="276" width="177" height="546" as="geometry">
            <mxRectangle width="177" height="546" as="alternateBounds" />
          </mxGeometry>
        </mxCell>
        <mxCell id="GChpjfw3P1T6bSBSSE3--15" style="edgeStyle=orthogonalEdgeStyle;rounded=1;sketch=1;orthogonalLoop=1;jettySize=auto;html=1;exitX=0.5;exitY=1;exitDx=0;exitDy=0;entryX=0.5;entryY=0;entryDx=0;entryDy=0;strokeColor=#788AA3;fillColor=#B2C9AB;fontFamily=Montserrat;fontSource=https%3A%2F%2Ffonts.googleapis.com%2Fcss%3Ffamily%3DMontserrat;fontSize=12;fontColor=#46495D;" parent="GChpjfw3P1T6bSBSSE3--1" source="GChpjfw3P1T6bSBSSE3--16" target="GChpjfw3P1T6bSBSSE3--18" edge="1">
          <mxGeometry relative="1" as="geometry" />
        </mxCell>
        <mxCell id="GChpjfw3P1T6bSBSSE3--16" value="Start" style="ellipse;whiteSpace=wrap;html=1;fontFamily=Montserrat;fontSource=https%3A%2F%2Ffonts.googleapis.com%2Fcss%3Ffamily%3DMontserrat;fontSize=15;opacity=40;gradientDirection=east;strokeColor=none;fillColor=#B2C9AB;fontColor=#46495D;sketch=1;" parent="GChpjfw3P1T6bSBSSE3--1" vertex="1">
          <mxGeometry x="180" y="170" width="120" height="40" as="geometry" />
        </mxCell>
        <mxCell id="GChpjfw3P1T6bSBSSE3--17" style="edgeStyle=orthogonalEdgeStyle;rounded=1;sketch=1;orthogonalLoop=1;jettySize=auto;html=1;exitX=0.5;exitY=1;exitDx=0;exitDy=0;entryX=0.5;entryY=0;entryDx=0;entryDy=0;strokeColor=#788AA3;fillColor=#B2C9AB;fontFamily=Montserrat;fontSource=https%3A%2F%2Ffonts.googleapis.com%2Fcss%3Ffamily%3DMontserrat;fontSize=12;fontColor=#46495D;" parent="GChpjfw3P1T6bSBSSE3--1" source="GChpjfw3P1T6bSBSSE3--18" target="GChpjfw3P1T6bSBSSE3--20" edge="1">
          <mxGeometry relative="1" as="geometry">
            <mxPoint x="414" y="330" as="targetPoint" />
          </mxGeometry>
        </mxCell>
        <mxCell id="GChpjfw3P1T6bSBSSE3--18" value="ユーザー申請" style="rounded=1;whiteSpace=wrap;html=1;labelBackgroundColor=none;sketch=1;strokeColor=#d6b656;fillColor=#fff2cc;fontSize=11;fontFamily=Noto Sans JP;fontSource=https%3A%2F%2Ffonts.googleapis.com%2Fcss%3Ffamily%3DNoto%2BSans%2BJP;" parent="GChpjfw3P1T6bSBSSE3--1" vertex="1">
          <mxGeometry x="180" y="240" width="120" height="50" as="geometry" />
        </mxCell>
        <mxCell id="GChpjfw3P1T6bSBSSE3--19" style="edgeStyle=orthogonalEdgeStyle;rounded=0;sketch=1;orthogonalLoop=1;jettySize=auto;html=1;exitX=0.5;exitY=1;exitDx=0;exitDy=0;entryX=0.5;entryY=0;entryDx=0;entryDy=0;strokeColor=#808080;fontSize=10;" parent="GChpjfw3P1T6bSBSSE3--1" source="GChpjfw3P1T6bSBSSE3--20" target="GChpjfw3P1T6bSBSSE3--24" edge="1">
          <mxGeometry relative="1" as="geometry">
            <mxPoint x="414" y="457" as="targetPoint" />
          </mxGeometry>
        </mxCell>
        <mxCell id="GChpjfw3P1T6bSBSSE3--20" value="ユーザー登録" style="rounded=1;whiteSpace=wrap;html=1;labelBackgroundColor=none;sketch=1;strokeColor=#d6b656;fillColor=#fff2cc;fontSize=12;fontFamily=Montserrat;fontSource=https%3A%2F%2Ffonts.googleapis.com%2Fcss%3Ffamily%3DMontserrat;" parent="GChpjfw3P1T6bSBSSE3--1" vertex="1">
          <mxGeometry x="349" y="340" width="130" height="40" as="geometry" />
        </mxCell>
        <mxCell id="GChpjfw3P1T6bSBSSE3--23" style="edgeStyle=orthogonalEdgeStyle;rounded=1;sketch=1;orthogonalLoop=1;jettySize=auto;html=1;exitX=0.5;exitY=1;exitDx=0;exitDy=0;entryX=0.5;entryY=0;entryDx=0;entryDy=0;labelBorderColor=none;fontFamily=Noto Sans JP;fontSource=https%3A%2F%2Ffonts.googleapis.com%2Fcss%3Ffamily%3DNoto%2BSans%2BJP;strokeColor=#666666;" parent="GChpjfw3P1T6bSBSSE3--1" source="GChpjfw3P1T6bSBSSE3--24" target="GChpjfw3P1T6bSBSSE3--44" edge="1">
          <mxGeometry relative="1" as="geometry" />
        </mxCell>
        <mxCell id="GChpjfw3P1T6bSBSSE3--24" value="&lt;div&gt;登録メール受信&lt;/div&gt;&lt;div&gt;パスワード登録&lt;br&gt;&lt;/div&gt;" style="rounded=1;whiteSpace=wrap;html=1;labelBackgroundColor=none;sketch=1;strokeColor=#d6b656;fillColor=#fff2cc;fontSize=12;fontFamily=Montserrat;fontSource=https%3A%2F%2Ffonts.googleapis.com%2Fcss%3Ffamily%3DMontserrat;" parent="GChpjfw3P1T6bSBSSE3--1" vertex="1">
          <mxGeometry x="175" y="430" width="130" height="60" as="geometry" />
        </mxCell>
        <mxCell id="GChpjfw3P1T6bSBSSE3--25" value="Scenario_A" style="text;html=1;align=center;verticalAlign=middle;resizable=0;points=[];autosize=1;fontSize=20;" parent="GChpjfw3P1T6bSBSSE3--1" vertex="1">
          <mxGeometry x="50" y="60" width="120" height="30" as="geometry" />
        </mxCell>
        <mxCell id="GChpjfw3P1T6bSBSSE3--34" value="" style="endArrow=none;html=1;fontSize=12;strokeWidth=2;strokeColor=#B3B3B3;" parent="GChpjfw3P1T6bSBSSE3--1" target="GChpjfw3P1T6bSBSSE3--9" edge="1">
          <mxGeometry width="50" height="50" relative="1" as="geometry">
            <mxPoint x="50" y="310" as="sourcePoint" />
            <mxPoint x="180" y="310" as="targetPoint" />
          </mxGeometry>
        </mxCell>
        <mxCell id="GChpjfw3P1T6bSBSSE3--48" style="edgeStyle=orthogonalEdgeStyle;rounded=0;orthogonalLoop=1;jettySize=auto;html=1;exitX=0.5;exitY=1;exitDx=0;exitDy=0;entryX=0.5;entryY=0;entryDx=0;entryDy=0;strokeColor=#808080;" parent="GChpjfw3P1T6bSBSSE3--1" source="GChpjfw3P1T6bSBSSE3--44" target="GChpjfw3P1T6bSBSSE3--45" edge="1">
          <mxGeometry relative="1" as="geometry" />
        </mxCell>
        <mxCell id="GChpjfw3P1T6bSBSSE3--44" value="システムログイン" style="rounded=1;whiteSpace=wrap;html=1;labelBackgroundColor=none;sketch=1;strokeColor=#d6b656;fillColor=#fff2cc;fontSize=12;fontFamily=Montserrat;fontSource=https%3A%2F%2Ffonts.googleapis.com%2Fcss%3Ffamily%3DMontserrat;" parent="GChpjfw3P1T6bSBSSE3--1" vertex="1">
          <mxGeometry x="175" y="545" width="130" height="40" as="geometry" />
        </mxCell>
        <mxCell id="GChpjfw3P1T6bSBSSE3--45" value="End" style="ellipse;whiteSpace=wrap;html=1;fontFamily=Montserrat;fontSource=https%3A%2F%2Ffonts.googleapis.com%2Fcss%3Ffamily%3DMontserrat;fontSize=15;opacity=40;gradientDirection=east;strokeColor=none;fillColor=#B2C9AB;fontColor=#46495D;sketch=1;" parent="GChpjfw3P1T6bSBSSE3--1" vertex="1">
          <mxGeometry x="180" y="650" width="120" height="40" as="geometry" />
        </mxCell>
        <mxCell id="kWSTrEFArNiufUxlUJxy-0" value="&lt;div&gt;登録情報：&lt;/div&gt;&lt;div&gt;&lt;br&gt;&lt;/div&gt;&lt;div&gt;ユーザーID：UAT&lt;/div&gt;&lt;div&gt;ユーザー名 ：uatusr&lt;/div&gt;&lt;div&gt;ふりがな：ユーエーティーユーザー&lt;/div&gt;&lt;div&gt;メール：kawai.yusei@otsuka.jp&lt;/div&gt;&lt;div&gt;グループ：一般ユーザー&lt;/div&gt;&lt;div&gt;パスワード：自動発行&lt;/div&gt;&lt;div&gt;管理権限：全権限付与&lt;/div&gt;&lt;div&gt;言語：Japanese&lt;/div&gt;&lt;div&gt;保護文書印刷：印刷を許可する&lt;br&gt;&lt;/div&gt;" style="whiteSpace=wrap;html=1;shape=mxgraph.basic.roundRectCallout;dx=30;dy=15;size=5;boundedLbl=1;verticalAlign=top;align=left;spacingLeft=5;" parent="GChpjfw3P1T6bSBSSE3--1" vertex="1">
          <mxGeometry x="530" y="200" width="330" height="190" as="geometry" />
        </mxCell>
        <mxCell id="GChpjfw3P1T6bSBSSE3--46" value="Untitled Layer" style="" parent="GChpjfw3P1T6bSBSSE3--0" />
      </root>
    </mxGraphModel>
  </diagram>
  <diagram name="PDUAT_scnerioB" id="L016BduX87QqAtx6DJg1">
    <mxGraphModel dx="1650" dy="908" grid="1" gridSize="10" guides="1" tooltips="1" connect="1" arrows="1" fold="1" page="1" pageScale="1" pageWidth="827" pageHeight="1169" math="0" shadow="0">
      <root>
        <mxCell id="PgwjVgG2PlXwxJCVvGLX-0" />
        <mxCell id="PgwjVgG2PlXwxJCVvGLX-1" style="" parent="PgwjVgG2PlXwxJCVvGLX-0" />
        <mxCell id="PgwjVgG2PlXwxJCVvGLX-2" value="" style="shape=table;html=1;whiteSpace=wrap;startSize=0;container=1;collapsible=0;childLayout=tableLayout;fillColor=none;fontFamily=Montserrat;fontSource=https%3A%2F%2Ffonts.googleapis.com%2Fcss%3Ffamily%3DMontserrat;fontSize=15;strokeColor=#666666;fontColor=#46495D;sketch=1;" parent="PgwjVgG2PlXwxJCVvGLX-1" vertex="1">
          <mxGeometry x="50" y="110" width="807" height="1150" as="geometry" />
        </mxCell>
        <mxCell id="PgwjVgG2PlXwxJCVvGLX-3" value="" style="shape=partialRectangle;html=1;whiteSpace=wrap;collapsible=0;dropTarget=0;pointerEvents=0;fillColor=none;top=0;left=0;bottom=0;right=0;points=[[0,0.5],[1,0.5]];portConstraint=eastwest;strokeColor=#788AA3;fontColor=#46495D;sketch=1;" parent="PgwjVgG2PlXwxJCVvGLX-2" vertex="1">
          <mxGeometry width="807" height="54" as="geometry" />
        </mxCell>
        <mxCell id="PgwjVgG2PlXwxJCVvGLX-4" value="対象者" style="shape=partialRectangle;html=1;whiteSpace=wrap;connectable=0;top=0;left=0;bottom=0;right=0;overflow=hidden;fontFamily=Montserrat;fontSource=https%3A%2F%2Ffonts.googleapis.com%2Fcss%3Ffamily%3DMontserrat;fillColor=#FFE6CC;opacity=40;strokeColor=#788AA3;fontColor=#46495D;labelBackgroundColor=none;labelBorderColor=none;fontStyle=0;fontSize=15;sketch=1;" parent="PgwjVgG2PlXwxJCVvGLX-3" vertex="1">
          <mxGeometry width="100" height="54" as="geometry">
            <mxRectangle width="100" height="54" as="alternateBounds" />
          </mxGeometry>
        </mxCell>
        <mxCell id="PgwjVgG2PlXwxJCVvGLX-5" value="文書作成者" style="shape=partialRectangle;html=1;whiteSpace=wrap;connectable=0;fillColor=#FFE6CC;top=0;left=0;bottom=0;right=0;overflow=hidden;fontFamily=Montserrat;fontSource=https%3A%2F%2Ffonts.googleapis.com%2Fcss%3Ffamily%3DMontserrat;strokeColor=#788AA3;fontColor=#46495D;fontSize=14;sketch=1;" parent="PgwjVgG2PlXwxJCVvGLX-3" vertex="1">
          <mxGeometry x="100" width="176" height="54" as="geometry">
            <mxRectangle width="176" height="54" as="alternateBounds" />
          </mxGeometry>
        </mxCell>
        <mxCell id="PgwjVgG2PlXwxJCVvGLX-6" value="&lt;div&gt;文書管理者&lt;/div&gt;" style="shape=partialRectangle;html=1;whiteSpace=wrap;connectable=0;fillColor=#FFE6CC;top=0;left=0;bottom=0;right=0;overflow=hidden;fontFamily=Montserrat;fontSource=https%3A%2F%2Ffonts.googleapis.com%2Fcss%3Ffamily%3DMontserrat;strokeColor=#788AA3;fontColor=#46495D;fontSize=14;sketch=1;" parent="PgwjVgG2PlXwxJCVvGLX-3" vertex="1">
          <mxGeometry x="276" width="177" height="54" as="geometry">
            <mxRectangle width="177" height="54" as="alternateBounds" />
          </mxGeometry>
        </mxCell>
        <mxCell id="PgwjVgG2PlXwxJCVvGLX-7" value="確認、承認者" style="shape=partialRectangle;html=1;whiteSpace=wrap;connectable=0;fillColor=#FFE6CC;top=0;left=0;bottom=0;right=0;overflow=hidden;fontFamily=Montserrat;fontSource=https%3A%2F%2Ffonts.googleapis.com%2Fcss%3Ffamily%3DMontserrat;strokeColor=#788AA3;fontColor=#46495D;fontSize=14;sketch=1;" parent="PgwjVgG2PlXwxJCVvGLX-3" vertex="1">
          <mxGeometry x="453" width="177" height="54" as="geometry">
            <mxRectangle width="177" height="54" as="alternateBounds" />
          </mxGeometry>
        </mxCell>
        <mxCell id="jjW2zKIHBl47use2sKi_-9" value="閲覧者" style="shape=partialRectangle;html=1;whiteSpace=wrap;connectable=0;fillColor=#FFE6CC;top=0;left=0;bottom=0;right=0;overflow=hidden;fontFamily=Montserrat;fontSource=https%3A%2F%2Ffonts.googleapis.com%2Fcss%3Ffamily%3DMontserrat;strokeColor=#788AA3;fontColor=#46495D;fontSize=14;sketch=1;" parent="PgwjVgG2PlXwxJCVvGLX-3" vertex="1">
          <mxGeometry x="630" width="177" height="54" as="geometry">
            <mxRectangle width="177" height="54" as="alternateBounds" />
          </mxGeometry>
        </mxCell>
        <mxCell id="PgwjVgG2PlXwxJCVvGLX-9" value="" style="shape=partialRectangle;html=1;whiteSpace=wrap;collapsible=0;dropTarget=0;pointerEvents=0;fillColor=none;top=0;left=0;bottom=0;right=0;points=[[0,0.5],[1,0.5]];portConstraint=eastwest;strokeColor=#788AA3;fontColor=#46495D;sketch=1;" parent="PgwjVgG2PlXwxJCVvGLX-2" vertex="1">
          <mxGeometry y="54" width="807" height="1096" as="geometry" />
        </mxCell>
        <mxCell id="PgwjVgG2PlXwxJCVvGLX-10" value="シナリオ" style="shape=partialRectangle;html=1;whiteSpace=wrap;connectable=0;top=0;left=0;bottom=0;right=0;overflow=hidden;fontFamily=Montserrat;fontSource=https%3A%2F%2Ffonts.googleapis.com%2Fcss%3Ffamily%3DMontserrat;fillColor=#B2C9AB;opacity=40;strokeColor=#788AA3;fontColor=#46495D;labelBackgroundColor=none;labelBorderColor=none;fontStyle=0;fontSize=15;sketch=1;" parent="PgwjVgG2PlXwxJCVvGLX-9" vertex="1">
          <mxGeometry width="100" height="1096" as="geometry">
            <mxRectangle width="100" height="1096" as="alternateBounds" />
          </mxGeometry>
        </mxCell>
        <mxCell id="PgwjVgG2PlXwxJCVvGLX-11" value="" style="shape=partialRectangle;html=1;whiteSpace=wrap;connectable=0;fillColor=none;top=0;left=0;bottom=0;right=0;overflow=hidden;fontFamily=Montserrat;fontSource=https%3A%2F%2Ffonts.googleapis.com%2Fcss%3Ffamily%3DMontserrat;strokeColor=#788AA3;fontColor=#46495D;sketch=1;" parent="PgwjVgG2PlXwxJCVvGLX-9" vertex="1">
          <mxGeometry x="100" width="176" height="1096" as="geometry">
            <mxRectangle width="176" height="1096" as="alternateBounds" />
          </mxGeometry>
        </mxCell>
        <mxCell id="PgwjVgG2PlXwxJCVvGLX-12" style="shape=partialRectangle;html=1;whiteSpace=wrap;connectable=0;fillColor=none;top=0;left=0;bottom=0;right=0;overflow=hidden;fontFamily=Montserrat;fontSource=https%3A%2F%2Ffonts.googleapis.com%2Fcss%3Ffamily%3DMontserrat;strokeColor=#788AA3;fontColor=#46495D;sketch=1;" parent="PgwjVgG2PlXwxJCVvGLX-9" vertex="1">
          <mxGeometry x="276" width="177" height="1096" as="geometry">
            <mxRectangle width="177" height="1096" as="alternateBounds" />
          </mxGeometry>
        </mxCell>
        <mxCell id="PgwjVgG2PlXwxJCVvGLX-13" value="" style="shape=partialRectangle;html=1;whiteSpace=wrap;connectable=0;fillColor=none;top=0;left=0;bottom=0;right=0;overflow=hidden;fontFamily=Montserrat;fontSource=https%3A%2F%2Ffonts.googleapis.com%2Fcss%3Ffamily%3DMontserrat;strokeColor=#788AA3;fontColor=#46495D;sketch=1;" parent="PgwjVgG2PlXwxJCVvGLX-9" vertex="1">
          <mxGeometry x="453" width="177" height="1096" as="geometry">
            <mxRectangle width="177" height="1096" as="alternateBounds" />
          </mxGeometry>
        </mxCell>
        <mxCell id="jjW2zKIHBl47use2sKi_-10" style="shape=partialRectangle;html=1;whiteSpace=wrap;connectable=0;fillColor=none;top=0;left=0;bottom=0;right=0;overflow=hidden;fontFamily=Montserrat;fontSource=https%3A%2F%2Ffonts.googleapis.com%2Fcss%3Ffamily%3DMontserrat;strokeColor=#788AA3;fontColor=#46495D;sketch=1;" parent="PgwjVgG2PlXwxJCVvGLX-9" vertex="1">
          <mxGeometry x="630" width="177" height="1096" as="geometry">
            <mxRectangle width="177" height="1096" as="alternateBounds" />
          </mxGeometry>
        </mxCell>
        <mxCell id="PgwjVgG2PlXwxJCVvGLX-21" style="edgeStyle=orthogonalEdgeStyle;rounded=1;sketch=1;orthogonalLoop=1;jettySize=auto;html=1;exitX=0.5;exitY=1;exitDx=0;exitDy=0;entryX=0.5;entryY=0;entryDx=0;entryDy=0;strokeColor=#788AA3;fillColor=#B2C9AB;fontFamily=Montserrat;fontSource=https%3A%2F%2Ffonts.googleapis.com%2Fcss%3Ffamily%3DMontserrat;fontSize=12;fontColor=#46495D;" parent="PgwjVgG2PlXwxJCVvGLX-1" source="PgwjVgG2PlXwxJCVvGLX-22" target="PgwjVgG2PlXwxJCVvGLX-24" edge="1">
          <mxGeometry relative="1" as="geometry" />
        </mxCell>
        <mxCell id="PgwjVgG2PlXwxJCVvGLX-22" value="Start" style="ellipse;whiteSpace=wrap;html=1;fontFamily=Montserrat;fontSource=https%3A%2F%2Ffonts.googleapis.com%2Fcss%3Ffamily%3DMontserrat;fontSize=15;opacity=40;gradientDirection=east;strokeColor=none;fillColor=#B2C9AB;fontColor=#46495D;sketch=1;" parent="PgwjVgG2PlXwxJCVvGLX-1" vertex="1">
          <mxGeometry x="180" y="170" width="120" height="40" as="geometry" />
        </mxCell>
        <mxCell id="PgwjVgG2PlXwxJCVvGLX-23" style="edgeStyle=orthogonalEdgeStyle;rounded=1;sketch=1;orthogonalLoop=1;jettySize=auto;html=1;exitX=0.5;exitY=1;exitDx=0;exitDy=0;entryX=0.5;entryY=0;entryDx=0;entryDy=0;strokeColor=#788AA3;fillColor=#B2C9AB;fontFamily=Montserrat;fontSource=https%3A%2F%2Ffonts.googleapis.com%2Fcss%3Ffamily%3DMontserrat;fontSize=12;fontColor=#46495D;" parent="PgwjVgG2PlXwxJCVvGLX-1" source="PgwjVgG2PlXwxJCVvGLX-24" target="PgwjVgG2PlXwxJCVvGLX-28" edge="1">
          <mxGeometry relative="1" as="geometry">
            <mxPoint x="415" y="330" as="targetPoint" />
          </mxGeometry>
        </mxCell>
        <mxCell id="PgwjVgG2PlXwxJCVvGLX-24" value="&lt;div&gt;&lt;font data-font-src=&quot;https://fonts.googleapis.com/css?family=Noto+Sans+JP&quot; face=&quot;Noto Sans JP&quot;&gt;管理文書作成依頼書&lt;/font&gt;&lt;/div&gt;&lt;div&gt;&lt;font data-font-src=&quot;https://fonts.googleapis.com/css?family=Noto+Sans+JP&quot; face=&quot;Noto Sans JP&quot;&gt;ワークフロー作成&lt;/font&gt;&lt;/div&gt;" style="rounded=1;whiteSpace=wrap;html=1;labelBackgroundColor=none;sketch=1;strokeColor=#d6b656;fillColor=#fff2cc;fontSize=11;fontFamily=Noto Sans JP;fontSource=https%3A%2F%2Ffonts.googleapis.com%2Fcss%3Ffamily%3DNoto%2BSans%2BJP;" parent="PgwjVgG2PlXwxJCVvGLX-1" vertex="1">
          <mxGeometry x="180" y="240" width="120" height="50" as="geometry" />
        </mxCell>
        <mxCell id="jjW2zKIHBl47use2sKi_-3" style="edgeStyle=orthogonalEdgeStyle;rounded=0;sketch=1;orthogonalLoop=1;jettySize=auto;html=1;exitX=0.5;exitY=1;exitDx=0;exitDy=0;entryX=0.5;entryY=0;entryDx=0;entryDy=0;strokeColor=#808080;fontSize=10;" parent="PgwjVgG2PlXwxJCVvGLX-1" source="PgwjVgG2PlXwxJCVvGLX-26" target="jjW2zKIHBl47use2sKi_-1" edge="1">
          <mxGeometry relative="1" as="geometry" />
        </mxCell>
        <mxCell id="PgwjVgG2PlXwxJCVvGLX-26" value="文書番号附番" style="rounded=1;whiteSpace=wrap;html=1;labelBackgroundColor=none;sketch=1;strokeColor=#d6b656;fillColor=#fff2cc;fontSize=12;fontFamily=Montserrat;fontSource=https%3A%2F%2Ffonts.googleapis.com%2Fcss%3Ffamily%3DMontserrat;" parent="PgwjVgG2PlXwxJCVvGLX-1" vertex="1">
          <mxGeometry x="349" y="420" width="130" height="40" as="geometry" />
        </mxCell>
        <mxCell id="jjW2zKIHBl47use2sKi_-0" style="edgeStyle=orthogonalEdgeStyle;rounded=0;orthogonalLoop=1;jettySize=auto;html=1;exitX=0.5;exitY=1;exitDx=0;exitDy=0;fontSize=10;sketch=1;strokeColor=#808080;" parent="PgwjVgG2PlXwxJCVvGLX-1" source="PgwjVgG2PlXwxJCVvGLX-28" target="PgwjVgG2PlXwxJCVvGLX-26" edge="1">
          <mxGeometry relative="1" as="geometry" />
        </mxCell>
        <mxCell id="PgwjVgG2PlXwxJCVvGLX-28" value="依頼書レビュー" style="rhombus;whiteSpace=wrap;html=1;labelBackgroundColor=none;sketch=1;strokeColor=#d6b656;fillColor=#fff2cc;fontFamily=Montserrat;fontSource=https%3A%2F%2Ffonts.googleapis.com%2Fcss%3Ffamily%3DMontserrat;fontSize=12;" parent="PgwjVgG2PlXwxJCVvGLX-1" vertex="1">
          <mxGeometry x="334" y="330" width="160" height="60" as="geometry" />
        </mxCell>
        <mxCell id="ErJtqyU9JU9rm9UkA7FJ-2" style="edgeStyle=orthogonalEdgeStyle;rounded=1;sketch=1;orthogonalLoop=1;jettySize=auto;html=1;exitX=0.5;exitY=1;exitDx=0;exitDy=0;entryX=0.5;entryY=0;entryDx=0;entryDy=0;labelBorderColor=none;fontFamily=Noto Sans JP;fontSource=https%3A%2F%2Ffonts.googleapis.com%2Fcss%3Ffamily%3DNoto%2BSans%2BJP;strokeColor=#666666;" parent="PgwjVgG2PlXwxJCVvGLX-1" source="PgwjVgG2PlXwxJCVvGLX-30" target="ErJtqyU9JU9rm9UkA7FJ-0" edge="1">
          <mxGeometry relative="1" as="geometry" />
        </mxCell>
        <mxCell id="PgwjVgG2PlXwxJCVvGLX-30" value="&lt;div&gt;文書作成&lt;/div&gt;&lt;div&gt;&amp;amp;&lt;br&gt;&lt;/div&gt;&lt;div&gt;教育コンテンツ作成&lt;/div&gt;" style="rounded=1;whiteSpace=wrap;html=1;labelBackgroundColor=none;sketch=1;strokeColor=#d6b656;fillColor=#fff2cc;fontSize=12;fontFamily=Montserrat;fontSource=https%3A%2F%2Ffonts.googleapis.com%2Fcss%3Ffamily%3DMontserrat;" parent="PgwjVgG2PlXwxJCVvGLX-1" vertex="1">
          <mxGeometry x="175" y="590" width="130" height="70" as="geometry" />
        </mxCell>
        <mxCell id="PgwjVgG2PlXwxJCVvGLX-48" value="Scenario_B" style="text;html=1;align=center;verticalAlign=middle;resizable=0;points=[];autosize=1;fontSize=20;" parent="PgwjVgG2PlXwxJCVvGLX-1" vertex="1">
          <mxGeometry x="50" y="60" width="120" height="30" as="geometry" />
        </mxCell>
        <mxCell id="jjW2zKIHBl47use2sKi_-4" style="edgeStyle=orthogonalEdgeStyle;sketch=1;orthogonalLoop=1;jettySize=auto;html=1;exitX=0.5;exitY=1;exitDx=0;exitDy=0;strokeColor=#808080;fontSize=10;labelBorderColor=none;rounded=1;" parent="PgwjVgG2PlXwxJCVvGLX-1" source="jjW2zKIHBl47use2sKi_-1" target="PgwjVgG2PlXwxJCVvGLX-30" edge="1">
          <mxGeometry relative="1" as="geometry" />
        </mxCell>
        <mxCell id="jjW2zKIHBl47use2sKi_-1" value="承認" style="rounded=1;whiteSpace=wrap;html=1;labelBackgroundColor=none;sketch=1;strokeColor=#d6b656;fillColor=#fff2cc;fontSize=12;fontFamily=Montserrat;fontSource=https%3A%2F%2Ffonts.googleapis.com%2Fcss%3Ffamily%3DMontserrat;" parent="PgwjVgG2PlXwxJCVvGLX-1" vertex="1">
          <mxGeometry x="349" y="490" width="130" height="40" as="geometry" />
        </mxCell>
        <mxCell id="jjW2zKIHBl47use2sKi_-8" style="edgeStyle=orthogonalEdgeStyle;rounded=1;sketch=1;orthogonalLoop=1;jettySize=auto;html=1;exitX=0.5;exitY=1;exitDx=0;exitDy=0;entryX=0.5;entryY=0;entryDx=0;entryDy=0;strokeColor=#808080;fontSize=10;" parent="PgwjVgG2PlXwxJCVvGLX-1" source="jjW2zKIHBl47use2sKi_-5" target="jjW2zKIHBl47use2sKi_-7" edge="1">
          <mxGeometry relative="1" as="geometry" />
        </mxCell>
        <mxCell id="jjW2zKIHBl47use2sKi_-5" value="パッケージ文書&lt;br&gt;ワークフロー作成" style="rounded=1;whiteSpace=wrap;html=1;labelBackgroundColor=none;sketch=1;strokeColor=#d6b656;fillColor=#fff2cc;fontSize=12;fontFamily=Montserrat;fontSource=https%3A%2F%2Ffonts.googleapis.com%2Fcss%3Ffamily%3DMontserrat;" parent="PgwjVgG2PlXwxJCVvGLX-1" vertex="1">
          <mxGeometry x="175" y="768" width="130" height="40" as="geometry" />
        </mxCell>
        <mxCell id="jjW2zKIHBl47use2sKi_-12" style="edgeStyle=orthogonalEdgeStyle;rounded=0;sketch=1;orthogonalLoop=1;jettySize=auto;html=1;exitX=0.5;exitY=1;exitDx=0;exitDy=0;entryX=0.5;entryY=0;entryDx=0;entryDy=0;strokeColor=#808080;fontSize=12;" parent="PgwjVgG2PlXwxJCVvGLX-1" source="jjW2zKIHBl47use2sKi_-7" target="jjW2zKIHBl47use2sKi_-11" edge="1">
          <mxGeometry relative="1" as="geometry" />
        </mxCell>
        <mxCell id="IHNnKyDvKilAdyxWYI81-0" style="edgeStyle=orthogonalEdgeStyle;rounded=0;orthogonalLoop=1;jettySize=auto;html=1;exitX=1;exitY=0.5;exitDx=0;exitDy=0;entryX=1;entryY=0.5;entryDx=0;entryDy=0;strokeColor=#808080;sketch=1;" parent="PgwjVgG2PlXwxJCVvGLX-1" source="jjW2zKIHBl47use2sKi_-7" target="ErJtqyU9JU9rm9UkA7FJ-0" edge="1">
          <mxGeometry relative="1" as="geometry" />
        </mxCell>
        <mxCell id="jjW2zKIHBl47use2sKi_-7" value="&lt;div style=&quot;font-size: 11px;&quot;&gt;文書&amp;amp;教育コンテンツ&lt;/div&gt;&lt;div style=&quot;font-size: 11px;&quot;&gt;レビュー&lt;/div&gt;" style="rhombus;whiteSpace=wrap;html=1;labelBackgroundColor=none;sketch=1;strokeColor=#d6b656;fillColor=#fff2cc;fontFamily=Montserrat;fontSource=https%3A%2F%2Ffonts.googleapis.com%2Fcss%3Ffamily%3DMontserrat;fontSize=11;" parent="PgwjVgG2PlXwxJCVvGLX-1" vertex="1">
          <mxGeometry x="510" y="856" width="160" height="60" as="geometry" />
        </mxCell>
        <mxCell id="jjW2zKIHBl47use2sKi_-50" style="edgeStyle=orthogonalEdgeStyle;rounded=1;sketch=1;orthogonalLoop=1;jettySize=auto;html=1;exitX=0.5;exitY=1;exitDx=0;exitDy=0;entryX=0.5;entryY=0;entryDx=0;entryDy=0;strokeColor=#808080;strokeWidth=1;fontSize=11;" parent="PgwjVgG2PlXwxJCVvGLX-1" source="jjW2zKIHBl47use2sKi_-11" target="jjW2zKIHBl47use2sKi_-49" edge="1">
          <mxGeometry relative="1" as="geometry" />
        </mxCell>
        <mxCell id="jjW2zKIHBl47use2sKi_-11" value="承認" style="rounded=1;whiteSpace=wrap;html=1;labelBackgroundColor=none;sketch=1;strokeColor=#d6b656;fillColor=#fff2cc;fontSize=12;fontFamily=Montserrat;fontSource=https%3A%2F%2Ffonts.googleapis.com%2Fcss%3Ffamily%3DMontserrat;" parent="PgwjVgG2PlXwxJCVvGLX-1" vertex="1">
          <mxGeometry x="525" y="941" width="130" height="40" as="geometry" />
        </mxCell>
        <mxCell id="jjW2zKIHBl47use2sKi_-16" value="" style="endArrow=none;html=1;fontSize=12;strokeWidth=2;strokeColor=#B3B3B3;" parent="PgwjVgG2PlXwxJCVvGLX-1" target="PgwjVgG2PlXwxJCVvGLX-9" edge="1">
          <mxGeometry width="50" height="50" relative="1" as="geometry">
            <mxPoint x="50" y="310" as="sourcePoint" />
            <mxPoint x="180" y="310" as="targetPoint" />
          </mxGeometry>
        </mxCell>
        <mxCell id="WpC6VKOOC8rXqzmWR0EH-0" style="edgeStyle=orthogonalEdgeStyle;rounded=1;orthogonalLoop=1;jettySize=auto;html=1;entryX=0;entryY=0.5;entryDx=0;entryDy=0;labelBorderColor=none;fontFamily=Noto Sans JP;fontSource=https%3A%2F%2Ffonts.googleapis.com%2Fcss%3Ffamily%3DNoto%2BSans%2BJP;sketch=1;strokeColor=#666666;" parent="PgwjVgG2PlXwxJCVvGLX-1" source="jjW2zKIHBl47use2sKi_-44" target="jjW2zKIHBl47use2sKi_-11" edge="1">
          <mxGeometry relative="1" as="geometry" />
        </mxCell>
        <mxCell id="jjW2zKIHBl47use2sKi_-44" value="教育コンテンツ紐づけ" style="rounded=1;whiteSpace=wrap;html=1;labelBackgroundColor=none;sketch=1;strokeColor=#d6b656;fillColor=#fff2cc;fontSize=12;fontFamily=Montserrat;fontSource=https%3A%2F%2Ffonts.googleapis.com%2Fcss%3Ffamily%3DMontserrat;" parent="PgwjVgG2PlXwxJCVvGLX-1" vertex="1">
          <mxGeometry x="170" y="941" width="130" height="40" as="geometry" />
        </mxCell>
        <mxCell id="jjW2zKIHBl47use2sKi_-49" value="トレーニング実施" style="rounded=1;whiteSpace=wrap;html=1;labelBackgroundColor=none;sketch=1;strokeColor=#d6b656;fillColor=#fff2cc;fontSize=12;fontFamily=Montserrat;fontSource=https%3A%2F%2Ffonts.googleapis.com%2Fcss%3Ffamily%3DMontserrat;" parent="PgwjVgG2PlXwxJCVvGLX-1" vertex="1">
          <mxGeometry x="700" y="1038" width="130" height="40" as="geometry" />
        </mxCell>
        <mxCell id="jjW2zKIHBl47use2sKi_-55" style="edgeStyle=orthogonalEdgeStyle;rounded=1;sketch=1;orthogonalLoop=1;jettySize=auto;html=1;exitX=1;exitY=0.5;exitDx=0;exitDy=0;entryX=0;entryY=0.5;entryDx=0;entryDy=0;strokeColor=#808080;strokeWidth=1;fontSize=11;" parent="PgwjVgG2PlXwxJCVvGLX-1" source="jjW2zKIHBl47use2sKi_-56" target="jjW2zKIHBl47use2sKi_-49" edge="1">
          <mxGeometry relative="1" as="geometry">
            <mxPoint x="835" y="1058" as="sourcePoint" />
          </mxGeometry>
        </mxCell>
        <mxCell id="jjW2zKIHBl47use2sKi_-59" style="edgeStyle=orthogonalEdgeStyle;rounded=0;sketch=1;orthogonalLoop=1;jettySize=auto;html=1;exitX=0.5;exitY=1;exitDx=0;exitDy=0;entryX=0.5;entryY=0;entryDx=0;entryDy=0;strokeColor=#808080;strokeWidth=1;fontSize=11;" parent="PgwjVgG2PlXwxJCVvGLX-1" source="jjW2zKIHBl47use2sKi_-56" target="jjW2zKIHBl47use2sKi_-58" edge="1">
          <mxGeometry relative="1" as="geometry" />
        </mxCell>
        <mxCell id="jjW2zKIHBl47use2sKi_-56" value="実施状況チェック" style="rounded=1;whiteSpace=wrap;html=1;labelBackgroundColor=none;sketch=1;strokeColor=#d6b656;fillColor=#fff2cc;fontSize=12;fontFamily=Montserrat;fontSource=https%3A%2F%2Ffonts.googleapis.com%2Fcss%3Ffamily%3DMontserrat;" parent="PgwjVgG2PlXwxJCVvGLX-1" vertex="1">
          <mxGeometry x="170" y="1038" width="130" height="40" as="geometry" />
        </mxCell>
        <mxCell id="ErJtqyU9JU9rm9UkA7FJ-5" style="edgeStyle=orthogonalEdgeStyle;rounded=1;sketch=1;orthogonalLoop=1;jettySize=auto;html=1;exitX=0.5;exitY=1;exitDx=0;exitDy=0;labelBorderColor=none;fontFamily=Noto Sans JP;fontSource=https%3A%2F%2Ffonts.googleapis.com%2Fcss%3Ffamily%3DNoto%2BSans%2BJP;strokeColor=#666666;" parent="PgwjVgG2PlXwxJCVvGLX-1" source="jjW2zKIHBl47use2sKi_-58" target="ErJtqyU9JU9rm9UkA7FJ-4" edge="1">
          <mxGeometry relative="1" as="geometry" />
        </mxCell>
        <mxCell id="jjW2zKIHBl47use2sKi_-58" value="発効" style="rounded=1;whiteSpace=wrap;html=1;labelBackgroundColor=none;sketch=1;strokeColor=#d6b656;fillColor=#fff2cc;fontSize=12;fontFamily=Montserrat;fontSource=https%3A%2F%2Ffonts.googleapis.com%2Fcss%3Ffamily%3DMontserrat;" parent="PgwjVgG2PlXwxJCVvGLX-1" vertex="1">
          <mxGeometry x="170" y="1108" width="130" height="40" as="geometry" />
        </mxCell>
        <mxCell id="ErJtqyU9JU9rm9UkA7FJ-3" style="edgeStyle=orthogonalEdgeStyle;rounded=1;sketch=1;orthogonalLoop=1;jettySize=auto;html=1;exitX=0.5;exitY=1;exitDx=0;exitDy=0;entryX=0.5;entryY=0;entryDx=0;entryDy=0;labelBorderColor=none;fontFamily=Noto Sans JP;fontSource=https%3A%2F%2Ffonts.googleapis.com%2Fcss%3Ffamily%3DNoto%2BSans%2BJP;strokeColor=#666666;" parent="PgwjVgG2PlXwxJCVvGLX-1" source="ErJtqyU9JU9rm9UkA7FJ-0" target="jjW2zKIHBl47use2sKi_-5" edge="1">
          <mxGeometry relative="1" as="geometry" />
        </mxCell>
        <mxCell id="ErJtqyU9JU9rm9UkA7FJ-0" value="文書登録" style="rounded=1;whiteSpace=wrap;html=1;labelBackgroundColor=none;sketch=1;strokeColor=#d6b656;fillColor=#fff2cc;fontSize=12;fontFamily=Montserrat;fontSource=https%3A%2F%2Ffonts.googleapis.com%2Fcss%3Ffamily%3DMontserrat;" parent="PgwjVgG2PlXwxJCVvGLX-1" vertex="1">
          <mxGeometry x="175" y="695" width="130" height="40" as="geometry" />
        </mxCell>
        <mxCell id="ErJtqyU9JU9rm9UkA7FJ-4" value="End" style="ellipse;whiteSpace=wrap;html=1;fontFamily=Montserrat;fontSource=https%3A%2F%2Ffonts.googleapis.com%2Fcss%3Ffamily%3DMontserrat;fontSize=15;opacity=40;gradientDirection=east;strokeColor=none;fillColor=#B2C9AB;fontColor=#46495D;sketch=1;" parent="PgwjVgG2PlXwxJCVvGLX-1" vertex="1">
          <mxGeometry x="175" y="1190" width="120" height="40" as="geometry" />
        </mxCell>
        <mxCell id="IHNnKyDvKilAdyxWYI81-1" value="差し戻し" style="text;html=1;align=center;verticalAlign=middle;resizable=0;points=[];autosize=1;strokeColor=none;fillColor=none;" parent="PgwjVgG2PlXwxJCVvGLX-1" vertex="1">
          <mxGeometry x="570" y="690" width="60" height="20" as="geometry" />
        </mxCell>
        <mxCell id="jjW2zKIHBl47use2sKi_-17" value="Untitled Layer" style="" parent="PgwjVgG2PlXwxJCVvGLX-0" />
      </root>
    </mxGraphModel>
  </diagram>
  <diagram id="uTC_UPYy1ui84vL9eW9-" name="PDUAT_scnerioC">
    <mxGraphModel dx="910" dy="539" grid="1" gridSize="10" guides="1" tooltips="1" connect="1" arrows="1" fold="1" page="1" pageScale="1" pageWidth="850" pageHeight="1100" math="0" shadow="0">
      <root>
        <mxCell id="OfOo6zy9uXg9O9rcdrd--0" />
        <mxCell id="OfOo6zy9uXg9O9rcdrd--1" parent="OfOo6zy9uXg9O9rcdrd--0" />
        <mxCell id="Pwi0favORZ6Vz2GzciXQ-0" value="" style="shape=table;html=1;whiteSpace=wrap;startSize=0;container=1;collapsible=0;childLayout=tableLayout;fillColor=none;fontFamily=Montserrat;fontSource=https%3A%2F%2Ffonts.googleapis.com%2Fcss%3Ffamily%3DMontserrat;fontSize=15;strokeColor=#666666;fontColor=#46495D;sketch=1;" vertex="1" parent="OfOo6zy9uXg9O9rcdrd--1">
          <mxGeometry x="50" y="110" width="630" height="1150" as="geometry" />
        </mxCell>
        <mxCell id="Pwi0favORZ6Vz2GzciXQ-1" value="" style="shape=partialRectangle;html=1;whiteSpace=wrap;collapsible=0;dropTarget=0;pointerEvents=0;fillColor=none;top=0;left=0;bottom=0;right=0;points=[[0,0.5],[1,0.5]];portConstraint=eastwest;strokeColor=#788AA3;fontColor=#46495D;sketch=1;" vertex="1" parent="Pwi0favORZ6Vz2GzciXQ-0">
          <mxGeometry width="630" height="54" as="geometry" />
        </mxCell>
        <mxCell id="Pwi0favORZ6Vz2GzciXQ-2" value="対象者" style="shape=partialRectangle;html=1;whiteSpace=wrap;connectable=0;top=0;left=0;bottom=0;right=0;overflow=hidden;fontFamily=Montserrat;fontSource=https%3A%2F%2Ffonts.googleapis.com%2Fcss%3Ffamily%3DMontserrat;fillColor=#FFE6CC;opacity=40;strokeColor=#788AA3;fontColor=#46495D;labelBackgroundColor=none;labelBorderColor=none;fontStyle=0;fontSize=15;sketch=1;" vertex="1" parent="Pwi0favORZ6Vz2GzciXQ-1">
          <mxGeometry width="100" height="54" as="geometry">
            <mxRectangle width="100" height="54" as="alternateBounds" />
          </mxGeometry>
        </mxCell>
        <mxCell id="Pwi0favORZ6Vz2GzciXQ-3" value="文書作成者" style="shape=partialRectangle;html=1;whiteSpace=wrap;connectable=0;fillColor=#FFE6CC;top=0;left=0;bottom=0;right=0;overflow=hidden;fontFamily=Montserrat;fontSource=https%3A%2F%2Ffonts.googleapis.com%2Fcss%3Ffamily%3DMontserrat;strokeColor=#788AA3;fontColor=#46495D;fontSize=14;sketch=1;" vertex="1" parent="Pwi0favORZ6Vz2GzciXQ-1">
          <mxGeometry x="100" width="176" height="54" as="geometry">
            <mxRectangle width="176" height="54" as="alternateBounds" />
          </mxGeometry>
        </mxCell>
        <mxCell id="Pwi0favORZ6Vz2GzciXQ-4" value="&lt;div&gt;文書管理者&lt;/div&gt;" style="shape=partialRectangle;html=1;whiteSpace=wrap;connectable=0;fillColor=#FFE6CC;top=0;left=0;bottom=0;right=0;overflow=hidden;fontFamily=Montserrat;fontSource=https%3A%2F%2Ffonts.googleapis.com%2Fcss%3Ffamily%3DMontserrat;strokeColor=#788AA3;fontColor=#46495D;fontSize=14;sketch=1;" vertex="1" parent="Pwi0favORZ6Vz2GzciXQ-1">
          <mxGeometry x="276" width="177" height="54" as="geometry">
            <mxRectangle width="177" height="54" as="alternateBounds" />
          </mxGeometry>
        </mxCell>
        <mxCell id="Pwi0favORZ6Vz2GzciXQ-5" value="確認、承認者" style="shape=partialRectangle;html=1;whiteSpace=wrap;connectable=0;fillColor=#FFE6CC;top=0;left=0;bottom=0;right=0;overflow=hidden;fontFamily=Montserrat;fontSource=https%3A%2F%2Ffonts.googleapis.com%2Fcss%3Ffamily%3DMontserrat;strokeColor=#788AA3;fontColor=#46495D;fontSize=14;sketch=1;" vertex="1" parent="Pwi0favORZ6Vz2GzciXQ-1">
          <mxGeometry x="453" width="177" height="54" as="geometry">
            <mxRectangle width="177" height="54" as="alternateBounds" />
          </mxGeometry>
        </mxCell>
        <mxCell id="Pwi0favORZ6Vz2GzciXQ-7" value="" style="shape=partialRectangle;html=1;whiteSpace=wrap;collapsible=0;dropTarget=0;pointerEvents=0;fillColor=none;top=0;left=0;bottom=0;right=0;points=[[0,0.5],[1,0.5]];portConstraint=eastwest;strokeColor=#788AA3;fontColor=#46495D;sketch=1;" vertex="1" parent="Pwi0favORZ6Vz2GzciXQ-0">
          <mxGeometry y="54" width="630" height="1096" as="geometry" />
        </mxCell>
        <mxCell id="Pwi0favORZ6Vz2GzciXQ-8" value="シナリオ" style="shape=partialRectangle;html=1;whiteSpace=wrap;connectable=0;top=0;left=0;bottom=0;right=0;overflow=hidden;fontFamily=Montserrat;fontSource=https%3A%2F%2Ffonts.googleapis.com%2Fcss%3Ffamily%3DMontserrat;fillColor=#B2C9AB;opacity=40;strokeColor=#788AA3;fontColor=#46495D;labelBackgroundColor=none;labelBorderColor=none;fontStyle=0;fontSize=15;sketch=1;" vertex="1" parent="Pwi0favORZ6Vz2GzciXQ-7">
          <mxGeometry width="100" height="1096" as="geometry">
            <mxRectangle width="100" height="1096" as="alternateBounds" />
          </mxGeometry>
        </mxCell>
        <mxCell id="Pwi0favORZ6Vz2GzciXQ-9" value="" style="shape=partialRectangle;html=1;whiteSpace=wrap;connectable=0;fillColor=none;top=0;left=0;bottom=0;right=0;overflow=hidden;fontFamily=Montserrat;fontSource=https%3A%2F%2Ffonts.googleapis.com%2Fcss%3Ffamily%3DMontserrat;strokeColor=#788AA3;fontColor=#46495D;sketch=1;" vertex="1" parent="Pwi0favORZ6Vz2GzciXQ-7">
          <mxGeometry x="100" width="176" height="1096" as="geometry">
            <mxRectangle width="176" height="1096" as="alternateBounds" />
          </mxGeometry>
        </mxCell>
        <mxCell id="Pwi0favORZ6Vz2GzciXQ-10" style="shape=partialRectangle;html=1;whiteSpace=wrap;connectable=0;fillColor=none;top=0;left=0;bottom=0;right=0;overflow=hidden;fontFamily=Montserrat;fontSource=https%3A%2F%2Ffonts.googleapis.com%2Fcss%3Ffamily%3DMontserrat;strokeColor=#788AA3;fontColor=#46495D;sketch=1;" vertex="1" parent="Pwi0favORZ6Vz2GzciXQ-7">
          <mxGeometry x="276" width="177" height="1096" as="geometry">
            <mxRectangle width="177" height="1096" as="alternateBounds" />
          </mxGeometry>
        </mxCell>
        <mxCell id="Pwi0favORZ6Vz2GzciXQ-11" value="" style="shape=partialRectangle;html=1;whiteSpace=wrap;connectable=0;fillColor=none;top=0;left=0;bottom=0;right=0;overflow=hidden;fontFamily=Montserrat;fontSource=https%3A%2F%2Ffonts.googleapis.com%2Fcss%3Ffamily%3DMontserrat;strokeColor=#788AA3;fontColor=#46495D;sketch=1;" vertex="1" parent="Pwi0favORZ6Vz2GzciXQ-7">
          <mxGeometry x="453" width="177" height="1096" as="geometry">
            <mxRectangle width="177" height="1096" as="alternateBounds" />
          </mxGeometry>
        </mxCell>
        <mxCell id="Pwi0favORZ6Vz2GzciXQ-13" style="edgeStyle=orthogonalEdgeStyle;rounded=1;sketch=1;orthogonalLoop=1;jettySize=auto;html=1;exitX=0.5;exitY=1;exitDx=0;exitDy=0;entryX=0.5;entryY=0;entryDx=0;entryDy=0;strokeColor=#788AA3;fillColor=#B2C9AB;fontFamily=Montserrat;fontSource=https%3A%2F%2Ffonts.googleapis.com%2Fcss%3Ffamily%3DMontserrat;fontSize=12;fontColor=#46495D;" edge="1" parent="OfOo6zy9uXg9O9rcdrd--1" source="Pwi0favORZ6Vz2GzciXQ-14" target="Pwi0favORZ6Vz2GzciXQ-16">
          <mxGeometry relative="1" as="geometry" />
        </mxCell>
        <mxCell id="Pwi0favORZ6Vz2GzciXQ-14" value="Start" style="ellipse;whiteSpace=wrap;html=1;fontFamily=Montserrat;fontSource=https%3A%2F%2Ffonts.googleapis.com%2Fcss%3Ffamily%3DMontserrat;fontSize=15;opacity=40;gradientDirection=east;strokeColor=none;fillColor=#B2C9AB;fontColor=#46495D;sketch=1;" vertex="1" parent="OfOo6zy9uXg9O9rcdrd--1">
          <mxGeometry x="180" y="170" width="120" height="40" as="geometry" />
        </mxCell>
        <mxCell id="Pwi0favORZ6Vz2GzciXQ-15" style="edgeStyle=orthogonalEdgeStyle;rounded=1;sketch=1;orthogonalLoop=1;jettySize=auto;html=1;exitX=0.5;exitY=1;exitDx=0;exitDy=0;entryX=0.5;entryY=0;entryDx=0;entryDy=0;strokeColor=#788AA3;fillColor=#B2C9AB;fontFamily=Montserrat;fontSource=https%3A%2F%2Ffonts.googleapis.com%2Fcss%3Ffamily%3DMontserrat;fontSize=12;fontColor=#46495D;" edge="1" parent="OfOo6zy9uXg9O9rcdrd--1" source="Pwi0favORZ6Vz2GzciXQ-16" target="Pwi0favORZ6Vz2GzciXQ-20">
          <mxGeometry relative="1" as="geometry">
            <mxPoint x="415" y="330" as="targetPoint" />
          </mxGeometry>
        </mxCell>
        <mxCell id="Pwi0favORZ6Vz2GzciXQ-16" value="&lt;div&gt;&lt;font data-font-src=&quot;https://fonts.googleapis.com/css?family=Noto+Sans+JP&quot; face=&quot;Noto Sans JP&quot;&gt;管理文書作成依頼書&lt;/font&gt;&lt;/div&gt;&lt;div&gt;&lt;font data-font-src=&quot;https://fonts.googleapis.com/css?family=Noto+Sans+JP&quot; face=&quot;Noto Sans JP&quot;&gt;（改定）ワークフロー作成&lt;/font&gt;&lt;/div&gt;" style="rounded=1;whiteSpace=wrap;html=1;labelBackgroundColor=none;sketch=1;strokeColor=#d6b656;fillColor=#fff2cc;fontSize=11;fontFamily=Noto Sans JP;fontSource=https%3A%2F%2Ffonts.googleapis.com%2Fcss%3Ffamily%3DNoto%2BSans%2BJP;" vertex="1" parent="OfOo6zy9uXg9O9rcdrd--1">
          <mxGeometry x="180" y="240" width="120" height="50" as="geometry" />
        </mxCell>
        <mxCell id="Pwi0favORZ6Vz2GzciXQ-17" style="edgeStyle=orthogonalEdgeStyle;rounded=0;sketch=1;orthogonalLoop=1;jettySize=auto;html=1;exitX=0.5;exitY=1;exitDx=0;exitDy=0;entryX=0.5;entryY=0;entryDx=0;entryDy=0;strokeColor=#808080;fontSize=10;" edge="1" parent="OfOo6zy9uXg9O9rcdrd--1" source="Pwi0favORZ6Vz2GzciXQ-18" target="Pwi0favORZ6Vz2GzciXQ-25">
          <mxGeometry relative="1" as="geometry" />
        </mxCell>
        <mxCell id="Pwi0favORZ6Vz2GzciXQ-18" value="文書番号附番" style="rounded=1;whiteSpace=wrap;html=1;labelBackgroundColor=none;sketch=1;strokeColor=#d6b656;fillColor=#fff2cc;fontSize=12;fontFamily=Montserrat;fontSource=https%3A%2F%2Ffonts.googleapis.com%2Fcss%3Ffamily%3DMontserrat;" vertex="1" parent="OfOo6zy9uXg9O9rcdrd--1">
          <mxGeometry x="349" y="420" width="130" height="40" as="geometry" />
        </mxCell>
        <mxCell id="Pwi0favORZ6Vz2GzciXQ-19" style="edgeStyle=orthogonalEdgeStyle;rounded=0;orthogonalLoop=1;jettySize=auto;html=1;exitX=0.5;exitY=1;exitDx=0;exitDy=0;fontSize=10;sketch=1;strokeColor=#808080;" edge="1" parent="OfOo6zy9uXg9O9rcdrd--1" source="Pwi0favORZ6Vz2GzciXQ-20" target="Pwi0favORZ6Vz2GzciXQ-18">
          <mxGeometry relative="1" as="geometry" />
        </mxCell>
        <mxCell id="Pwi0favORZ6Vz2GzciXQ-20" value="依頼書レビュー" style="rhombus;whiteSpace=wrap;html=1;labelBackgroundColor=none;sketch=1;strokeColor=#d6b656;fillColor=#fff2cc;fontFamily=Montserrat;fontSource=https%3A%2F%2Ffonts.googleapis.com%2Fcss%3Ffamily%3DMontserrat;fontSize=12;" vertex="1" parent="OfOo6zy9uXg9O9rcdrd--1">
          <mxGeometry x="334" y="330" width="160" height="60" as="geometry" />
        </mxCell>
        <mxCell id="Pwi0favORZ6Vz2GzciXQ-21" style="edgeStyle=orthogonalEdgeStyle;rounded=1;sketch=1;orthogonalLoop=1;jettySize=auto;html=1;exitX=0.5;exitY=1;exitDx=0;exitDy=0;entryX=0.5;entryY=0;entryDx=0;entryDy=0;labelBorderColor=none;fontFamily=Noto Sans JP;fontSource=https%3A%2F%2Ffonts.googleapis.com%2Fcss%3Ffamily%3DNoto%2BSans%2BJP;strokeColor=#666666;" edge="1" parent="OfOo6zy9uXg9O9rcdrd--1" source="Pwi0favORZ6Vz2GzciXQ-22" target="Pwi0favORZ6Vz2GzciXQ-42">
          <mxGeometry relative="1" as="geometry" />
        </mxCell>
        <mxCell id="Pwi0favORZ6Vz2GzciXQ-22" value="&lt;div&gt;文書作成&lt;/div&gt;" style="rounded=1;whiteSpace=wrap;html=1;labelBackgroundColor=none;sketch=1;strokeColor=#d6b656;fillColor=#fff2cc;fontSize=12;fontFamily=Montserrat;fontSource=https%3A%2F%2Ffonts.googleapis.com%2Fcss%3Ffamily%3DMontserrat;" vertex="1" parent="OfOo6zy9uXg9O9rcdrd--1">
          <mxGeometry x="175" y="590" width="130" height="40" as="geometry" />
        </mxCell>
        <mxCell id="Pwi0favORZ6Vz2GzciXQ-23" value="Scenario_C" style="text;html=1;align=center;verticalAlign=middle;resizable=0;points=[];autosize=1;fontSize=20;" vertex="1" parent="OfOo6zy9uXg9O9rcdrd--1">
          <mxGeometry x="50" y="60" width="120" height="30" as="geometry" />
        </mxCell>
        <mxCell id="Pwi0favORZ6Vz2GzciXQ-24" style="edgeStyle=orthogonalEdgeStyle;sketch=1;orthogonalLoop=1;jettySize=auto;html=1;exitX=0.5;exitY=1;exitDx=0;exitDy=0;strokeColor=#808080;fontSize=10;labelBorderColor=none;rounded=1;" edge="1" parent="OfOo6zy9uXg9O9rcdrd--1" source="Pwi0favORZ6Vz2GzciXQ-25" target="Pwi0favORZ6Vz2GzciXQ-22">
          <mxGeometry relative="1" as="geometry" />
        </mxCell>
        <mxCell id="Pwi0favORZ6Vz2GzciXQ-25" value="承認" style="rounded=1;whiteSpace=wrap;html=1;labelBackgroundColor=none;sketch=1;strokeColor=#d6b656;fillColor=#fff2cc;fontSize=12;fontFamily=Montserrat;fontSource=https%3A%2F%2Ffonts.googleapis.com%2Fcss%3Ffamily%3DMontserrat;" vertex="1" parent="OfOo6zy9uXg9O9rcdrd--1">
          <mxGeometry x="349" y="490" width="130" height="40" as="geometry" />
        </mxCell>
        <mxCell id="Pwi0favORZ6Vz2GzciXQ-26" style="edgeStyle=orthogonalEdgeStyle;rounded=1;sketch=1;orthogonalLoop=1;jettySize=auto;html=1;exitX=0.5;exitY=1;exitDx=0;exitDy=0;entryX=0.5;entryY=0;entryDx=0;entryDy=0;strokeColor=#808080;fontSize=10;" edge="1" parent="OfOo6zy9uXg9O9rcdrd--1" source="Pwi0favORZ6Vz2GzciXQ-27" target="Pwi0favORZ6Vz2GzciXQ-29">
          <mxGeometry relative="1" as="geometry" />
        </mxCell>
        <mxCell id="Pwi0favORZ6Vz2GzciXQ-27" value="パッケージ文書&lt;br&gt;ワークフロー作成" style="rounded=1;whiteSpace=wrap;html=1;labelBackgroundColor=none;sketch=1;strokeColor=#d6b656;fillColor=#fff2cc;fontSize=12;fontFamily=Montserrat;fontSource=https%3A%2F%2Ffonts.googleapis.com%2Fcss%3Ffamily%3DMontserrat;" vertex="1" parent="OfOo6zy9uXg9O9rcdrd--1">
          <mxGeometry x="175" y="768" width="130" height="40" as="geometry" />
        </mxCell>
        <mxCell id="Pwi0favORZ6Vz2GzciXQ-28" style="edgeStyle=orthogonalEdgeStyle;rounded=0;sketch=1;orthogonalLoop=1;jettySize=auto;html=1;exitX=0.5;exitY=1;exitDx=0;exitDy=0;entryX=0.5;entryY=0;entryDx=0;entryDy=0;strokeColor=#808080;fontSize=12;" edge="1" parent="OfOo6zy9uXg9O9rcdrd--1" source="Pwi0favORZ6Vz2GzciXQ-29" target="Pwi0favORZ6Vz2GzciXQ-31">
          <mxGeometry relative="1" as="geometry" />
        </mxCell>
        <mxCell id="Pwi0favORZ6Vz2GzciXQ-29" value="&lt;div style=&quot;font-size: 11px&quot;&gt;文書レビュー&lt;/div&gt;" style="rhombus;whiteSpace=wrap;html=1;labelBackgroundColor=none;sketch=1;strokeColor=#d6b656;fillColor=#fff2cc;fontFamily=Montserrat;fontSource=https%3A%2F%2Ffonts.googleapis.com%2Fcss%3Ffamily%3DMontserrat;fontSize=11;" vertex="1" parent="OfOo6zy9uXg9O9rcdrd--1">
          <mxGeometry x="510" y="856" width="160" height="60" as="geometry" />
        </mxCell>
        <mxCell id="Pwi0favORZ6Vz2GzciXQ-45" style="edgeStyle=orthogonalEdgeStyle;rounded=0;orthogonalLoop=1;jettySize=auto;html=1;exitX=0.5;exitY=1;exitDx=0;exitDy=0;strokeColor=#808080;" edge="1" parent="OfOo6zy9uXg9O9rcdrd--1" source="Pwi0favORZ6Vz2GzciXQ-31" target="Pwi0favORZ6Vz2GzciXQ-40">
          <mxGeometry relative="1" as="geometry" />
        </mxCell>
        <mxCell id="Pwi0favORZ6Vz2GzciXQ-31" value="承認" style="rounded=1;whiteSpace=wrap;html=1;labelBackgroundColor=none;sketch=1;strokeColor=#d6b656;fillColor=#fff2cc;fontSize=12;fontFamily=Montserrat;fontSource=https%3A%2F%2Ffonts.googleapis.com%2Fcss%3Ffamily%3DMontserrat;" vertex="1" parent="OfOo6zy9uXg9O9rcdrd--1">
          <mxGeometry x="525" y="941" width="130" height="40" as="geometry" />
        </mxCell>
        <mxCell id="Pwi0favORZ6Vz2GzciXQ-32" value="" style="endArrow=none;html=1;fontSize=12;strokeWidth=2;strokeColor=#B3B3B3;" edge="1" parent="OfOo6zy9uXg9O9rcdrd--1" target="Pwi0favORZ6Vz2GzciXQ-7">
          <mxGeometry width="50" height="50" relative="1" as="geometry">
            <mxPoint x="50" y="310" as="sourcePoint" />
            <mxPoint x="180" y="310" as="targetPoint" />
          </mxGeometry>
        </mxCell>
        <mxCell id="Pwi0favORZ6Vz2GzciXQ-39" style="edgeStyle=orthogonalEdgeStyle;rounded=1;sketch=1;orthogonalLoop=1;jettySize=auto;html=1;exitX=0.5;exitY=1;exitDx=0;exitDy=0;labelBorderColor=none;fontFamily=Noto Sans JP;fontSource=https%3A%2F%2Ffonts.googleapis.com%2Fcss%3Ffamily%3DNoto%2BSans%2BJP;strokeColor=#666666;" edge="1" parent="OfOo6zy9uXg9O9rcdrd--1" source="Pwi0favORZ6Vz2GzciXQ-40" target="Pwi0favORZ6Vz2GzciXQ-43">
          <mxGeometry relative="1" as="geometry" />
        </mxCell>
        <mxCell id="Pwi0favORZ6Vz2GzciXQ-40" value="発効" style="rounded=1;whiteSpace=wrap;html=1;labelBackgroundColor=none;sketch=1;strokeColor=#d6b656;fillColor=#fff2cc;fontSize=12;fontFamily=Montserrat;fontSource=https%3A%2F%2Ffonts.googleapis.com%2Fcss%3Ffamily%3DMontserrat;" vertex="1" parent="OfOo6zy9uXg9O9rcdrd--1">
          <mxGeometry x="170" y="1108" width="130" height="40" as="geometry" />
        </mxCell>
        <mxCell id="Pwi0favORZ6Vz2GzciXQ-41" style="edgeStyle=orthogonalEdgeStyle;rounded=1;sketch=1;orthogonalLoop=1;jettySize=auto;html=1;exitX=0.5;exitY=1;exitDx=0;exitDy=0;entryX=0.5;entryY=0;entryDx=0;entryDy=0;labelBorderColor=none;fontFamily=Noto Sans JP;fontSource=https%3A%2F%2Ffonts.googleapis.com%2Fcss%3Ffamily%3DNoto%2BSans%2BJP;strokeColor=#666666;" edge="1" parent="OfOo6zy9uXg9O9rcdrd--1" source="Pwi0favORZ6Vz2GzciXQ-42" target="Pwi0favORZ6Vz2GzciXQ-27">
          <mxGeometry relative="1" as="geometry" />
        </mxCell>
        <mxCell id="Pwi0favORZ6Vz2GzciXQ-42" value="文書置換" style="rounded=1;whiteSpace=wrap;html=1;labelBackgroundColor=none;sketch=1;strokeColor=#d6b656;fillColor=#fff2cc;fontSize=12;fontFamily=Montserrat;fontSource=https%3A%2F%2Ffonts.googleapis.com%2Fcss%3Ffamily%3DMontserrat;" vertex="1" parent="OfOo6zy9uXg9O9rcdrd--1">
          <mxGeometry x="175" y="695" width="130" height="40" as="geometry" />
        </mxCell>
        <mxCell id="Pwi0favORZ6Vz2GzciXQ-43" value="End" style="ellipse;whiteSpace=wrap;html=1;fontFamily=Montserrat;fontSource=https%3A%2F%2Ffonts.googleapis.com%2Fcss%3Ffamily%3DMontserrat;fontSize=15;opacity=40;gradientDirection=east;strokeColor=none;fillColor=#B2C9AB;fontColor=#46495D;sketch=1;" vertex="1" parent="OfOo6zy9uXg9O9rcdrd--1">
          <mxGeometry x="175" y="1190" width="120" height="40" as="geometry" />
        </mxCell>
      </root>
    </mxGraphModel>
  </diagram>
  <diagram name="PDUAT_scnerioD" id="olAFSe_tINqH9FBMuVNb">
    <mxGraphModel dx="1998" dy="1080" grid="1" gridSize="10" guides="1" tooltips="1" connect="1" arrows="1" fold="1" page="1" pageScale="1" pageWidth="850" pageHeight="1100" math="0" shadow="0">
      <root>
        <mxCell id="0FSSf9rhjetuo7oEOuey-0" />
        <mxCell id="0FSSf9rhjetuo7oEOuey-1" parent="0FSSf9rhjetuo7oEOuey-0" />
        <mxCell id="0FSSf9rhjetuo7oEOuey-2" value="" style="shape=table;html=1;whiteSpace=wrap;startSize=0;container=1;collapsible=0;childLayout=tableLayout;fillColor=none;fontFamily=Montserrat;fontSource=https%3A%2F%2Ffonts.googleapis.com%2Fcss%3Ffamily%3DMontserrat;fontSize=15;strokeColor=#666666;fontColor=#46495D;sketch=1;" parent="0FSSf9rhjetuo7oEOuey-1" vertex="1">
          <mxGeometry x="50" y="110" width="630" height="1150" as="geometry" />
        </mxCell>
        <mxCell id="0FSSf9rhjetuo7oEOuey-3" value="" style="shape=partialRectangle;html=1;whiteSpace=wrap;collapsible=0;dropTarget=0;pointerEvents=0;fillColor=none;top=0;left=0;bottom=0;right=0;points=[[0,0.5],[1,0.5]];portConstraint=eastwest;strokeColor=#788AA3;fontColor=#46495D;sketch=1;" parent="0FSSf9rhjetuo7oEOuey-2" vertex="1">
          <mxGeometry width="630" height="54" as="geometry" />
        </mxCell>
        <mxCell id="0FSSf9rhjetuo7oEOuey-4" value="対象者" style="shape=partialRectangle;html=1;whiteSpace=wrap;connectable=0;top=0;left=0;bottom=0;right=0;overflow=hidden;fontFamily=Montserrat;fontSource=https%3A%2F%2Ffonts.googleapis.com%2Fcss%3Ffamily%3DMontserrat;fillColor=#FFE6CC;opacity=40;strokeColor=#788AA3;fontColor=#46495D;labelBackgroundColor=none;labelBorderColor=none;fontStyle=0;fontSize=15;sketch=1;" parent="0FSSf9rhjetuo7oEOuey-3" vertex="1">
          <mxGeometry width="100" height="54" as="geometry">
            <mxRectangle width="100" height="54" as="alternateBounds" />
          </mxGeometry>
        </mxCell>
        <mxCell id="0FSSf9rhjetuo7oEOuey-5" value="文書作成者" style="shape=partialRectangle;html=1;whiteSpace=wrap;connectable=0;fillColor=#FFE6CC;top=0;left=0;bottom=0;right=0;overflow=hidden;fontFamily=Montserrat;fontSource=https%3A%2F%2Ffonts.googleapis.com%2Fcss%3Ffamily%3DMontserrat;strokeColor=#788AA3;fontColor=#46495D;fontSize=14;sketch=1;" parent="0FSSf9rhjetuo7oEOuey-3" vertex="1">
          <mxGeometry x="100" width="176" height="54" as="geometry">
            <mxRectangle width="176" height="54" as="alternateBounds" />
          </mxGeometry>
        </mxCell>
        <mxCell id="0FSSf9rhjetuo7oEOuey-6" value="&lt;div&gt;文書管理者&lt;/div&gt;" style="shape=partialRectangle;html=1;whiteSpace=wrap;connectable=0;fillColor=#FFE6CC;top=0;left=0;bottom=0;right=0;overflow=hidden;fontFamily=Montserrat;fontSource=https%3A%2F%2Ffonts.googleapis.com%2Fcss%3Ffamily%3DMontserrat;strokeColor=#788AA3;fontColor=#46495D;fontSize=14;sketch=1;" parent="0FSSf9rhjetuo7oEOuey-3" vertex="1">
          <mxGeometry x="276" width="177" height="54" as="geometry">
            <mxRectangle width="177" height="54" as="alternateBounds" />
          </mxGeometry>
        </mxCell>
        <mxCell id="0FSSf9rhjetuo7oEOuey-7" value="確認、承認者" style="shape=partialRectangle;html=1;whiteSpace=wrap;connectable=0;fillColor=#FFE6CC;top=0;left=0;bottom=0;right=0;overflow=hidden;fontFamily=Montserrat;fontSource=https%3A%2F%2Ffonts.googleapis.com%2Fcss%3Ffamily%3DMontserrat;strokeColor=#788AA3;fontColor=#46495D;fontSize=14;sketch=1;" parent="0FSSf9rhjetuo7oEOuey-3" vertex="1">
          <mxGeometry x="453" width="177" height="54" as="geometry">
            <mxRectangle width="177" height="54" as="alternateBounds" />
          </mxGeometry>
        </mxCell>
        <mxCell id="0FSSf9rhjetuo7oEOuey-9" value="" style="shape=partialRectangle;html=1;whiteSpace=wrap;collapsible=0;dropTarget=0;pointerEvents=0;fillColor=none;top=0;left=0;bottom=0;right=0;points=[[0,0.5],[1,0.5]];portConstraint=eastwest;strokeColor=#788AA3;fontColor=#46495D;sketch=1;" parent="0FSSf9rhjetuo7oEOuey-2" vertex="1">
          <mxGeometry y="54" width="630" height="1096" as="geometry" />
        </mxCell>
        <mxCell id="0FSSf9rhjetuo7oEOuey-10" value="シナリオ" style="shape=partialRectangle;html=1;whiteSpace=wrap;connectable=0;top=0;left=0;bottom=0;right=0;overflow=hidden;fontFamily=Montserrat;fontSource=https%3A%2F%2Ffonts.googleapis.com%2Fcss%3Ffamily%3DMontserrat;fillColor=#B2C9AB;opacity=40;strokeColor=#788AA3;fontColor=#46495D;labelBackgroundColor=none;labelBorderColor=none;fontStyle=0;fontSize=15;sketch=1;" parent="0FSSf9rhjetuo7oEOuey-9" vertex="1">
          <mxGeometry width="100" height="1096" as="geometry">
            <mxRectangle width="100" height="1096" as="alternateBounds" />
          </mxGeometry>
        </mxCell>
        <mxCell id="0FSSf9rhjetuo7oEOuey-11" value="" style="shape=partialRectangle;html=1;whiteSpace=wrap;connectable=0;fillColor=none;top=0;left=0;bottom=0;right=0;overflow=hidden;fontFamily=Montserrat;fontSource=https%3A%2F%2Ffonts.googleapis.com%2Fcss%3Ffamily%3DMontserrat;strokeColor=#788AA3;fontColor=#46495D;sketch=1;" parent="0FSSf9rhjetuo7oEOuey-9" vertex="1">
          <mxGeometry x="100" width="176" height="1096" as="geometry">
            <mxRectangle width="176" height="1096" as="alternateBounds" />
          </mxGeometry>
        </mxCell>
        <mxCell id="0FSSf9rhjetuo7oEOuey-12" style="shape=partialRectangle;html=1;whiteSpace=wrap;connectable=0;fillColor=none;top=0;left=0;bottom=0;right=0;overflow=hidden;fontFamily=Montserrat;fontSource=https%3A%2F%2Ffonts.googleapis.com%2Fcss%3Ffamily%3DMontserrat;strokeColor=#788AA3;fontColor=#46495D;sketch=1;" parent="0FSSf9rhjetuo7oEOuey-9" vertex="1">
          <mxGeometry x="276" width="177" height="1096" as="geometry">
            <mxRectangle width="177" height="1096" as="alternateBounds" />
          </mxGeometry>
        </mxCell>
        <mxCell id="0FSSf9rhjetuo7oEOuey-13" value="" style="shape=partialRectangle;html=1;whiteSpace=wrap;connectable=0;fillColor=none;top=0;left=0;bottom=0;right=0;overflow=hidden;fontFamily=Montserrat;fontSource=https%3A%2F%2Ffonts.googleapis.com%2Fcss%3Ffamily%3DMontserrat;strokeColor=#788AA3;fontColor=#46495D;sketch=1;" parent="0FSSf9rhjetuo7oEOuey-9" vertex="1">
          <mxGeometry x="453" width="177" height="1096" as="geometry">
            <mxRectangle width="177" height="1096" as="alternateBounds" />
          </mxGeometry>
        </mxCell>
        <mxCell id="0FSSf9rhjetuo7oEOuey-15" style="edgeStyle=orthogonalEdgeStyle;rounded=1;sketch=1;orthogonalLoop=1;jettySize=auto;html=1;exitX=0.5;exitY=1;exitDx=0;exitDy=0;entryX=0.5;entryY=0;entryDx=0;entryDy=0;strokeColor=#788AA3;fillColor=#B2C9AB;fontFamily=Montserrat;fontSource=https%3A%2F%2Ffonts.googleapis.com%2Fcss%3Ffamily%3DMontserrat;fontSize=12;fontColor=#46495D;" parent="0FSSf9rhjetuo7oEOuey-1" source="0FSSf9rhjetuo7oEOuey-16" target="0FSSf9rhjetuo7oEOuey-18" edge="1">
          <mxGeometry relative="1" as="geometry" />
        </mxCell>
        <mxCell id="0FSSf9rhjetuo7oEOuey-16" value="Start" style="ellipse;whiteSpace=wrap;html=1;fontFamily=Montserrat;fontSource=https%3A%2F%2Ffonts.googleapis.com%2Fcss%3Ffamily%3DMontserrat;fontSize=15;opacity=40;gradientDirection=east;strokeColor=none;fillColor=#B2C9AB;fontColor=#46495D;sketch=1;" parent="0FSSf9rhjetuo7oEOuey-1" vertex="1">
          <mxGeometry x="180" y="170" width="120" height="40" as="geometry" />
        </mxCell>
        <mxCell id="0FSSf9rhjetuo7oEOuey-17" style="edgeStyle=orthogonalEdgeStyle;rounded=1;sketch=1;orthogonalLoop=1;jettySize=auto;html=1;exitX=0.5;exitY=1;exitDx=0;exitDy=0;entryX=0.5;entryY=0;entryDx=0;entryDy=0;strokeColor=#788AA3;fillColor=#B2C9AB;fontFamily=Montserrat;fontSource=https%3A%2F%2Ffonts.googleapis.com%2Fcss%3Ffamily%3DMontserrat;fontSize=12;fontColor=#46495D;" parent="0FSSf9rhjetuo7oEOuey-1" source="0FSSf9rhjetuo7oEOuey-18" target="0FSSf9rhjetuo7oEOuey-22" edge="1">
          <mxGeometry relative="1" as="geometry">
            <mxPoint x="415" y="330" as="targetPoint" />
          </mxGeometry>
        </mxCell>
        <mxCell id="0FSSf9rhjetuo7oEOuey-18" value="&lt;div&gt;&lt;font data-font-src=&quot;https://fonts.googleapis.com/css?family=Noto+Sans+JP&quot; face=&quot;Noto Sans JP&quot;&gt;管理文書廃止依頼書ワークフロー作成&lt;/font&gt;&lt;/div&gt;" style="rounded=1;whiteSpace=wrap;html=1;labelBackgroundColor=none;sketch=1;strokeColor=#d6b656;fillColor=#fff2cc;fontSize=11;fontFamily=Noto Sans JP;fontSource=https%3A%2F%2Ffonts.googleapis.com%2Fcss%3Ffamily%3DNoto%2BSans%2BJP;" parent="0FSSf9rhjetuo7oEOuey-1" vertex="1">
          <mxGeometry x="180" y="240" width="120" height="50" as="geometry" />
        </mxCell>
        <mxCell id="rYLz1CIs1FRyK1nCfUPq-0" style="edgeStyle=orthogonalEdgeStyle;rounded=0;orthogonalLoop=1;jettySize=auto;html=1;exitX=0.5;exitY=1;exitDx=0;exitDy=0;entryX=0.5;entryY=0;entryDx=0;entryDy=0;strokeColor=#808080;" parent="0FSSf9rhjetuo7oEOuey-1" source="0FSSf9rhjetuo7oEOuey-22" target="0FSSf9rhjetuo7oEOuey-27" edge="1">
          <mxGeometry relative="1" as="geometry" />
        </mxCell>
        <mxCell id="0FSSf9rhjetuo7oEOuey-22" value="依頼書レビュー" style="rhombus;whiteSpace=wrap;html=1;labelBackgroundColor=none;sketch=1;strokeColor=#d6b656;fillColor=#fff2cc;fontFamily=Montserrat;fontSource=https%3A%2F%2Ffonts.googleapis.com%2Fcss%3Ffamily%3DMontserrat;fontSize=12;" parent="0FSSf9rhjetuo7oEOuey-1" vertex="1">
          <mxGeometry x="334" y="350" width="160" height="60" as="geometry" />
        </mxCell>
        <mxCell id="0FSSf9rhjetuo7oEOuey-25" value="Scenario_D" style="text;html=1;align=center;verticalAlign=middle;resizable=0;points=[];autosize=1;fontSize=20;" parent="0FSSf9rhjetuo7oEOuey-1" vertex="1">
          <mxGeometry x="50" y="60" width="120" height="30" as="geometry" />
        </mxCell>
        <mxCell id="0FSSf9rhjetuo7oEOuey-26" style="edgeStyle=orthogonalEdgeStyle;sketch=1;orthogonalLoop=1;jettySize=auto;html=1;exitX=0.5;exitY=1;exitDx=0;exitDy=0;strokeColor=#808080;fontSize=10;labelBorderColor=none;rounded=1;entryX=0.5;entryY=0;entryDx=0;entryDy=0;" parent="0FSSf9rhjetuo7oEOuey-1" source="0FSSf9rhjetuo7oEOuey-27" target="0FSSf9rhjetuo7oEOuey-29" edge="1">
          <mxGeometry relative="1" as="geometry">
            <mxPoint x="240" y="590" as="targetPoint" />
          </mxGeometry>
        </mxCell>
        <mxCell id="0FSSf9rhjetuo7oEOuey-27" value="承認" style="rounded=1;whiteSpace=wrap;html=1;labelBackgroundColor=none;sketch=1;strokeColor=#d6b656;fillColor=#fff2cc;fontSize=12;fontFamily=Montserrat;fontSource=https%3A%2F%2Ffonts.googleapis.com%2Fcss%3Ffamily%3DMontserrat;" parent="0FSSf9rhjetuo7oEOuey-1" vertex="1">
          <mxGeometry x="349" y="440" width="130" height="40" as="geometry" />
        </mxCell>
        <mxCell id="0FSSf9rhjetuo7oEOuey-28" style="edgeStyle=orthogonalEdgeStyle;rounded=1;sketch=1;orthogonalLoop=1;jettySize=auto;html=1;exitX=0.5;exitY=1;exitDx=0;exitDy=0;entryX=0.5;entryY=0;entryDx=0;entryDy=0;strokeColor=#808080;fontSize=10;" parent="0FSSf9rhjetuo7oEOuey-1" source="0FSSf9rhjetuo7oEOuey-29" target="0FSSf9rhjetuo7oEOuey-31" edge="1">
          <mxGeometry relative="1" as="geometry" />
        </mxCell>
        <mxCell id="0FSSf9rhjetuo7oEOuey-29" value="&lt;div&gt;パッケージ文書&lt;/div&gt;廃止ワークフロー作成" style="rounded=1;whiteSpace=wrap;html=1;labelBackgroundColor=none;sketch=1;strokeColor=#d6b656;fillColor=#fff2cc;fontSize=12;fontFamily=Montserrat;fontSource=https%3A%2F%2Ffonts.googleapis.com%2Fcss%3Ffamily%3DMontserrat;" parent="0FSSf9rhjetuo7oEOuey-1" vertex="1">
          <mxGeometry x="175" y="560" width="130" height="40" as="geometry" />
        </mxCell>
        <mxCell id="0FSSf9rhjetuo7oEOuey-30" style="edgeStyle=orthogonalEdgeStyle;rounded=0;sketch=1;orthogonalLoop=1;jettySize=auto;html=1;exitX=0.5;exitY=1;exitDx=0;exitDy=0;entryX=0.5;entryY=0;entryDx=0;entryDy=0;strokeColor=#808080;fontSize=12;" parent="0FSSf9rhjetuo7oEOuey-1" source="0FSSf9rhjetuo7oEOuey-31" target="0FSSf9rhjetuo7oEOuey-33" edge="1">
          <mxGeometry relative="1" as="geometry" />
        </mxCell>
        <mxCell id="0FSSf9rhjetuo7oEOuey-31" value="&lt;div style=&quot;font-size: 11px&quot;&gt;ワークフローレビュー&lt;/div&gt;" style="rhombus;whiteSpace=wrap;html=1;labelBackgroundColor=none;sketch=1;strokeColor=#d6b656;fillColor=#fff2cc;fontFamily=Montserrat;fontSource=https%3A%2F%2Ffonts.googleapis.com%2Fcss%3Ffamily%3DMontserrat;fontSize=11;" parent="0FSSf9rhjetuo7oEOuey-1" vertex="1">
          <mxGeometry x="510" y="680" width="160" height="60" as="geometry" />
        </mxCell>
        <mxCell id="rYLz1CIs1FRyK1nCfUPq-2" style="edgeStyle=orthogonalEdgeStyle;rounded=0;orthogonalLoop=1;jettySize=auto;html=1;exitX=0.5;exitY=1;exitDx=0;exitDy=0;entryX=0.5;entryY=0;entryDx=0;entryDy=0;strokeColor=#808080;" parent="0FSSf9rhjetuo7oEOuey-1" source="0FSSf9rhjetuo7oEOuey-33" target="rYLz1CIs1FRyK1nCfUPq-1" edge="1">
          <mxGeometry relative="1" as="geometry" />
        </mxCell>
        <mxCell id="0FSSf9rhjetuo7oEOuey-33" value="承認" style="rounded=1;whiteSpace=wrap;html=1;labelBackgroundColor=none;sketch=1;strokeColor=#d6b656;fillColor=#fff2cc;fontSize=12;fontFamily=Montserrat;fontSource=https%3A%2F%2Ffonts.googleapis.com%2Fcss%3Ffamily%3DMontserrat;" parent="0FSSf9rhjetuo7oEOuey-1" vertex="1">
          <mxGeometry x="525" y="770" width="130" height="40" as="geometry" />
        </mxCell>
        <mxCell id="0FSSf9rhjetuo7oEOuey-34" value="" style="endArrow=none;html=1;fontSize=12;strokeWidth=2;strokeColor=#B3B3B3;" parent="0FSSf9rhjetuo7oEOuey-1" target="0FSSf9rhjetuo7oEOuey-9" edge="1">
          <mxGeometry width="50" height="50" relative="1" as="geometry">
            <mxPoint x="50" y="310" as="sourcePoint" />
            <mxPoint x="180" y="310" as="targetPoint" />
          </mxGeometry>
        </mxCell>
        <mxCell id="0FSSf9rhjetuo7oEOuey-39" value="End" style="ellipse;whiteSpace=wrap;html=1;fontFamily=Montserrat;fontSource=https%3A%2F%2Ffonts.googleapis.com%2Fcss%3Ffamily%3DMontserrat;fontSize=15;opacity=40;gradientDirection=east;strokeColor=none;fillColor=#B2C9AB;fontColor=#46495D;sketch=1;" parent="0FSSf9rhjetuo7oEOuey-1" vertex="1">
          <mxGeometry x="180" y="1120" width="120" height="40" as="geometry" />
        </mxCell>
        <mxCell id="rYLz1CIs1FRyK1nCfUPq-4" style="edgeStyle=orthogonalEdgeStyle;rounded=0;orthogonalLoop=1;jettySize=auto;html=1;exitX=0.5;exitY=1;exitDx=0;exitDy=0;strokeColor=#808080;" parent="0FSSf9rhjetuo7oEOuey-1" source="rYLz1CIs1FRyK1nCfUPq-1" target="rYLz1CIs1FRyK1nCfUPq-3" edge="1">
          <mxGeometry relative="1" as="geometry" />
        </mxCell>
        <mxCell id="rYLz1CIs1FRyK1nCfUPq-1" value="管理文書廃止" style="rounded=1;whiteSpace=wrap;html=1;labelBackgroundColor=none;sketch=1;strokeColor=#d6b656;fillColor=#fff2cc;fontSize=12;fontFamily=Montserrat;fontSource=https%3A%2F%2Ffonts.googleapis.com%2Fcss%3Ffamily%3DMontserrat;" parent="0FSSf9rhjetuo7oEOuey-1" vertex="1">
          <mxGeometry x="175" y="910" width="130" height="40" as="geometry" />
        </mxCell>
        <mxCell id="rYLz1CIs1FRyK1nCfUPq-5" style="edgeStyle=orthogonalEdgeStyle;rounded=0;orthogonalLoop=1;jettySize=auto;html=1;exitX=0.5;exitY=1;exitDx=0;exitDy=0;strokeColor=#808080;" parent="0FSSf9rhjetuo7oEOuey-1" source="rYLz1CIs1FRyK1nCfUPq-3" target="0FSSf9rhjetuo7oEOuey-39" edge="1">
          <mxGeometry relative="1" as="geometry" />
        </mxCell>
        <mxCell id="rYLz1CIs1FRyK1nCfUPq-3" value="文書ファイルを廃止フォルダへ移動" style="rounded=1;whiteSpace=wrap;html=1;labelBackgroundColor=none;sketch=1;strokeColor=#d6b656;fillColor=#fff2cc;fontSize=12;fontFamily=Montserrat;fontSource=https%3A%2F%2Ffonts.googleapis.com%2Fcss%3Ffamily%3DMontserrat;" parent="0FSSf9rhjetuo7oEOuey-1" vertex="1">
          <mxGeometry x="175" y="1010" width="130" height="40" as="geometry" />
        </mxCell>
      </root>
    </mxGraphModel>
  </diagram>
  <diagram name="PDUAT_scnerioE" id="gB-var65nqnfA4NXdP_X">
    <mxGraphModel dx="1378" dy="745" grid="1" gridSize="10" guides="1" tooltips="1" connect="1" arrows="1" fold="1" page="1" pageScale="1" pageWidth="827" pageHeight="1169" math="0" shadow="0">
      <root>
        <mxCell id="3UWcqDKJkAsrDeEhe3fB-0" />
        <mxCell id="3UWcqDKJkAsrDeEhe3fB-1" style="" parent="3UWcqDKJkAsrDeEhe3fB-0" />
        <mxCell id="3UWcqDKJkAsrDeEhe3fB-2" value="" style="shape=table;html=1;whiteSpace=wrap;startSize=0;container=1;collapsible=0;childLayout=tableLayout;fillColor=none;fontFamily=Montserrat;fontSource=https%3A%2F%2Ffonts.googleapis.com%2Fcss%3Ffamily%3DMontserrat;fontSize=15;strokeColor=#666666;fontColor=#46495D;sketch=1;" parent="3UWcqDKJkAsrDeEhe3fB-1" vertex="1">
          <mxGeometry x="50" y="110" width="276" height="600" as="geometry" />
        </mxCell>
        <mxCell id="3UWcqDKJkAsrDeEhe3fB-3" value="" style="shape=partialRectangle;html=1;whiteSpace=wrap;collapsible=0;dropTarget=0;pointerEvents=0;fillColor=none;top=0;left=0;bottom=0;right=0;points=[[0,0.5],[1,0.5]];portConstraint=eastwest;strokeColor=#788AA3;fontColor=#46495D;sketch=1;" parent="3UWcqDKJkAsrDeEhe3fB-2" vertex="1">
          <mxGeometry width="276" height="54" as="geometry" />
        </mxCell>
        <mxCell id="3UWcqDKJkAsrDeEhe3fB-4" value="対象者" style="shape=partialRectangle;html=1;whiteSpace=wrap;connectable=0;top=0;left=0;bottom=0;right=0;overflow=hidden;fontFamily=Montserrat;fontSource=https%3A%2F%2Ffonts.googleapis.com%2Fcss%3Ffamily%3DMontserrat;fillColor=#FFE6CC;opacity=40;strokeColor=#788AA3;fontColor=#46495D;labelBackgroundColor=none;labelBorderColor=none;fontStyle=0;fontSize=15;sketch=1;" parent="3UWcqDKJkAsrDeEhe3fB-3" vertex="1">
          <mxGeometry width="100" height="54" as="geometry">
            <mxRectangle width="100" height="54" as="alternateBounds" />
          </mxGeometry>
        </mxCell>
        <mxCell id="3UWcqDKJkAsrDeEhe3fB-5" value="&lt;div&gt;ユーザー&lt;/div&gt;" style="shape=partialRectangle;html=1;whiteSpace=wrap;connectable=0;fillColor=#FFE6CC;top=0;left=0;bottom=0;right=0;overflow=hidden;fontFamily=Montserrat;fontSource=https%3A%2F%2Ffonts.googleapis.com%2Fcss%3Ffamily%3DMontserrat;strokeColor=#788AA3;fontColor=#46495D;fontSize=14;sketch=1;" parent="3UWcqDKJkAsrDeEhe3fB-3" vertex="1">
          <mxGeometry x="100" width="176" height="54" as="geometry">
            <mxRectangle width="176" height="54" as="alternateBounds" />
          </mxGeometry>
        </mxCell>
        <mxCell id="3UWcqDKJkAsrDeEhe3fB-7" value="" style="shape=partialRectangle;html=1;whiteSpace=wrap;collapsible=0;dropTarget=0;pointerEvents=0;fillColor=none;top=0;left=0;bottom=0;right=0;points=[[0,0.5],[1,0.5]];portConstraint=eastwest;strokeColor=#788AA3;fontColor=#46495D;sketch=1;" parent="3UWcqDKJkAsrDeEhe3fB-2" vertex="1">
          <mxGeometry y="54" width="276" height="546" as="geometry" />
        </mxCell>
        <mxCell id="3UWcqDKJkAsrDeEhe3fB-8" value="シナリオ" style="shape=partialRectangle;html=1;whiteSpace=wrap;connectable=0;top=0;left=0;bottom=0;right=0;overflow=hidden;fontFamily=Montserrat;fontSource=https%3A%2F%2Ffonts.googleapis.com%2Fcss%3Ffamily%3DMontserrat;fillColor=#B2C9AB;opacity=40;strokeColor=#788AA3;fontColor=#46495D;labelBackgroundColor=none;labelBorderColor=none;fontStyle=0;fontSize=15;sketch=1;" parent="3UWcqDKJkAsrDeEhe3fB-7" vertex="1">
          <mxGeometry width="100" height="546" as="geometry">
            <mxRectangle width="100" height="546" as="alternateBounds" />
          </mxGeometry>
        </mxCell>
        <mxCell id="3UWcqDKJkAsrDeEhe3fB-9" value="" style="shape=partialRectangle;html=1;whiteSpace=wrap;connectable=0;fillColor=none;top=0;left=0;bottom=0;right=0;overflow=hidden;fontFamily=Montserrat;fontSource=https%3A%2F%2Ffonts.googleapis.com%2Fcss%3Ffamily%3DMontserrat;strokeColor=#788AA3;fontColor=#46495D;sketch=1;" parent="3UWcqDKJkAsrDeEhe3fB-7" vertex="1">
          <mxGeometry x="100" width="176" height="546" as="geometry">
            <mxRectangle width="176" height="546" as="alternateBounds" />
          </mxGeometry>
        </mxCell>
        <mxCell id="3UWcqDKJkAsrDeEhe3fB-11" style="edgeStyle=orthogonalEdgeStyle;rounded=1;sketch=1;orthogonalLoop=1;jettySize=auto;html=1;exitX=0.5;exitY=1;exitDx=0;exitDy=0;entryX=0.5;entryY=0;entryDx=0;entryDy=0;strokeColor=#788AA3;fillColor=#B2C9AB;fontFamily=Montserrat;fontSource=https%3A%2F%2Ffonts.googleapis.com%2Fcss%3Ffamily%3DMontserrat;fontSize=12;fontColor=#46495D;" parent="3UWcqDKJkAsrDeEhe3fB-1" source="3UWcqDKJkAsrDeEhe3fB-12" target="3UWcqDKJkAsrDeEhe3fB-14" edge="1">
          <mxGeometry relative="1" as="geometry" />
        </mxCell>
        <mxCell id="3UWcqDKJkAsrDeEhe3fB-12" value="Start" style="ellipse;whiteSpace=wrap;html=1;fontFamily=Montserrat;fontSource=https%3A%2F%2Ffonts.googleapis.com%2Fcss%3Ffamily%3DMontserrat;fontSize=15;opacity=40;gradientDirection=east;strokeColor=none;fillColor=#B2C9AB;fontColor=#46495D;sketch=1;" parent="3UWcqDKJkAsrDeEhe3fB-1" vertex="1">
          <mxGeometry x="180" y="170" width="120" height="40" as="geometry" />
        </mxCell>
        <mxCell id="3UWcqDKJkAsrDeEhe3fB-14" value="検索文書" style="rounded=1;whiteSpace=wrap;html=1;labelBackgroundColor=none;sketch=1;strokeColor=#d6b656;fillColor=#fff2cc;fontSize=11;fontFamily=Noto Sans JP;fontSource=https%3A%2F%2Ffonts.googleapis.com%2Fcss%3Ffamily%3DNoto%2BSans%2BJP;" parent="3UWcqDKJkAsrDeEhe3fB-1" vertex="1">
          <mxGeometry x="180" y="390" width="120" height="40" as="geometry" />
        </mxCell>
        <mxCell id="3UWcqDKJkAsrDeEhe3fB-19" value="Scenario_E" style="text;html=1;align=center;verticalAlign=middle;resizable=0;points=[];autosize=1;fontSize=20;" parent="3UWcqDKJkAsrDeEhe3fB-1" vertex="1">
          <mxGeometry x="50" y="60" width="120" height="30" as="geometry" />
        </mxCell>
        <mxCell id="3UWcqDKJkAsrDeEhe3fB-20" value="" style="endArrow=none;html=1;fontSize=12;strokeWidth=2;strokeColor=#B3B3B3;" parent="3UWcqDKJkAsrDeEhe3fB-1" target="3UWcqDKJkAsrDeEhe3fB-7" edge="1">
          <mxGeometry width="50" height="50" relative="1" as="geometry">
            <mxPoint x="50" y="310" as="sourcePoint" />
            <mxPoint x="180" y="310" as="targetPoint" />
          </mxGeometry>
        </mxCell>
        <mxCell id="3UWcqDKJkAsrDeEhe3fB-21" style="edgeStyle=orthogonalEdgeStyle;rounded=0;orthogonalLoop=1;jettySize=auto;html=1;exitX=0.5;exitY=1;exitDx=0;exitDy=0;entryX=0.5;entryY=0;entryDx=0;entryDy=0;strokeColor=#808080;" parent="3UWcqDKJkAsrDeEhe3fB-1" source="3UWcqDKJkAsrDeEhe3fB-14" target="3UWcqDKJkAsrDeEhe3fB-23" edge="1">
          <mxGeometry relative="1" as="geometry">
            <mxPoint x="240" y="585" as="sourcePoint" />
          </mxGeometry>
        </mxCell>
        <mxCell id="3UWcqDKJkAsrDeEhe3fB-23" value="End" style="ellipse;whiteSpace=wrap;html=1;fontFamily=Montserrat;fontSource=https%3A%2F%2Ffonts.googleapis.com%2Fcss%3Ffamily%3DMontserrat;fontSize=15;opacity=40;gradientDirection=east;strokeColor=none;fillColor=#B2C9AB;fontColor=#46495D;sketch=1;" parent="3UWcqDKJkAsrDeEhe3fB-1" vertex="1">
          <mxGeometry x="180" y="650" width="120" height="40" as="geometry" />
        </mxCell>
        <mxCell id="3UWcqDKJkAsrDeEhe3fB-26" value="&lt;div&gt;検索文書：&lt;/div&gt;&lt;div&gt;&lt;br&gt;&lt;/div&gt;&lt;div&gt;＜文書名＞&lt;br&gt;&lt;/div&gt;&lt;div&gt;* 管理文書発効依頼書&lt;/div&gt;&lt;div&gt;&lt;br&gt;&lt;/div&gt;&lt;div&gt;＜ステータス＞&lt;/div&gt;&lt;div&gt;* 発行済&lt;/div&gt;&lt;div&gt;&lt;br&gt;&lt;/div&gt;&lt;div&gt;＜文書形式＞&lt;br&gt;&lt;/div&gt;&lt;div&gt;* カスタムテンプレート&lt;/div&gt;&lt;div&gt;&lt;br&gt;&lt;/div&gt;&lt;div&gt;＜作成日＞&lt;/div&gt;&lt;div&gt;* 2021年10月&lt;/div&gt;&lt;div&gt;&lt;br&gt;&lt;/div&gt;&lt;div&gt;&lt;br&gt;&lt;/div&gt;" style="whiteSpace=wrap;html=1;shape=mxgraph.basic.roundRectCallout;dx=30;dy=15;size=5;boundedLbl=1;verticalAlign=top;align=left;spacingLeft=5;" parent="3UWcqDKJkAsrDeEhe3fB-1" vertex="1">
          <mxGeometry x="340" y="180" width="200" height="230" as="geometry" />
        </mxCell>
        <mxCell id="3UWcqDKJkAsrDeEhe3fB-24" value="Untitled Layer" style="" parent="3UWcqDKJkAsrDeEhe3fB-0" />
      </root>
    </mxGraphModel>
  </diagram>
  <diagram name="PDUAT_scnerioF" id="Re3x7xDGBF1mv8Nc7UGH">
    <mxGraphModel dx="1138" dy="674" grid="1" gridSize="10" guides="1" tooltips="1" connect="1" arrows="1" fold="1" page="1" pageScale="1" pageWidth="827" pageHeight="1169" math="0" shadow="0">
      <root>
        <mxCell id="Mri-tDMAAlfSCZjpWTSw-0" />
        <mxCell id="Mri-tDMAAlfSCZjpWTSw-1" style="" parent="Mri-tDMAAlfSCZjpWTSw-0" />
        <mxCell id="Mri-tDMAAlfSCZjpWTSw-2" value="" style="shape=table;html=1;whiteSpace=wrap;startSize=0;container=1;collapsible=0;childLayout=tableLayout;fillColor=none;fontFamily=Montserrat;fontSource=https%3A%2F%2Ffonts.googleapis.com%2Fcss%3Ffamily%3DMontserrat;fontSize=15;strokeColor=#666666;fontColor=#46495D;sketch=1;" vertex="1" parent="Mri-tDMAAlfSCZjpWTSw-1">
          <mxGeometry x="50" y="110" width="276" height="600" as="geometry" />
        </mxCell>
        <mxCell id="Mri-tDMAAlfSCZjpWTSw-3" value="" style="shape=partialRectangle;html=1;whiteSpace=wrap;collapsible=0;dropTarget=0;pointerEvents=0;fillColor=none;top=0;left=0;bottom=0;right=0;points=[[0,0.5],[1,0.5]];portConstraint=eastwest;strokeColor=#788AA3;fontColor=#46495D;sketch=1;" vertex="1" parent="Mri-tDMAAlfSCZjpWTSw-2">
          <mxGeometry width="276" height="54" as="geometry" />
        </mxCell>
        <mxCell id="Mri-tDMAAlfSCZjpWTSw-4" value="対象者" style="shape=partialRectangle;html=1;whiteSpace=wrap;connectable=0;top=0;left=0;bottom=0;right=0;overflow=hidden;fontFamily=Montserrat;fontSource=https%3A%2F%2Ffonts.googleapis.com%2Fcss%3Ffamily%3DMontserrat;fillColor=#FFE6CC;opacity=40;strokeColor=#788AA3;fontColor=#46495D;labelBackgroundColor=none;labelBorderColor=none;fontStyle=0;fontSize=15;sketch=1;" vertex="1" parent="Mri-tDMAAlfSCZjpWTSw-3">
          <mxGeometry width="100" height="54" as="geometry">
            <mxRectangle width="100" height="54" as="alternateBounds" />
          </mxGeometry>
        </mxCell>
        <mxCell id="Mri-tDMAAlfSCZjpWTSw-5" value="&lt;div&gt;ユーザー&lt;/div&gt;" style="shape=partialRectangle;html=1;whiteSpace=wrap;connectable=0;fillColor=#FFE6CC;top=0;left=0;bottom=0;right=0;overflow=hidden;fontFamily=Montserrat;fontSource=https%3A%2F%2Ffonts.googleapis.com%2Fcss%3Ffamily%3DMontserrat;strokeColor=#788AA3;fontColor=#46495D;fontSize=14;sketch=1;" vertex="1" parent="Mri-tDMAAlfSCZjpWTSw-3">
          <mxGeometry x="100" width="176" height="54" as="geometry">
            <mxRectangle width="176" height="54" as="alternateBounds" />
          </mxGeometry>
        </mxCell>
        <mxCell id="Mri-tDMAAlfSCZjpWTSw-6" value="" style="shape=partialRectangle;html=1;whiteSpace=wrap;collapsible=0;dropTarget=0;pointerEvents=0;fillColor=none;top=0;left=0;bottom=0;right=0;points=[[0,0.5],[1,0.5]];portConstraint=eastwest;strokeColor=#788AA3;fontColor=#46495D;sketch=1;" vertex="1" parent="Mri-tDMAAlfSCZjpWTSw-2">
          <mxGeometry y="54" width="276" height="546" as="geometry" />
        </mxCell>
        <mxCell id="Mri-tDMAAlfSCZjpWTSw-7" value="シナリオ" style="shape=partialRectangle;html=1;whiteSpace=wrap;connectable=0;top=0;left=0;bottom=0;right=0;overflow=hidden;fontFamily=Montserrat;fontSource=https%3A%2F%2Ffonts.googleapis.com%2Fcss%3Ffamily%3DMontserrat;fillColor=#B2C9AB;opacity=40;strokeColor=#788AA3;fontColor=#46495D;labelBackgroundColor=none;labelBorderColor=none;fontStyle=0;fontSize=15;sketch=1;" vertex="1" parent="Mri-tDMAAlfSCZjpWTSw-6">
          <mxGeometry width="100" height="546" as="geometry">
            <mxRectangle width="100" height="546" as="alternateBounds" />
          </mxGeometry>
        </mxCell>
        <mxCell id="Mri-tDMAAlfSCZjpWTSw-8" value="" style="shape=partialRectangle;html=1;whiteSpace=wrap;connectable=0;fillColor=none;top=0;left=0;bottom=0;right=0;overflow=hidden;fontFamily=Montserrat;fontSource=https%3A%2F%2Ffonts.googleapis.com%2Fcss%3Ffamily%3DMontserrat;strokeColor=#788AA3;fontColor=#46495D;sketch=1;" vertex="1" parent="Mri-tDMAAlfSCZjpWTSw-6">
          <mxGeometry x="100" width="176" height="546" as="geometry">
            <mxRectangle width="176" height="546" as="alternateBounds" />
          </mxGeometry>
        </mxCell>
        <mxCell id="Mri-tDMAAlfSCZjpWTSw-9" style="edgeStyle=orthogonalEdgeStyle;rounded=1;sketch=1;orthogonalLoop=1;jettySize=auto;html=1;exitX=0.5;exitY=1;exitDx=0;exitDy=0;entryX=0.5;entryY=0;entryDx=0;entryDy=0;strokeColor=#788AA3;fillColor=#B2C9AB;fontFamily=Montserrat;fontSource=https%3A%2F%2Ffonts.googleapis.com%2Fcss%3Ffamily%3DMontserrat;fontSize=12;fontColor=#46495D;" edge="1" parent="Mri-tDMAAlfSCZjpWTSw-1" source="Mri-tDMAAlfSCZjpWTSw-10" target="Mri-tDMAAlfSCZjpWTSw-11">
          <mxGeometry relative="1" as="geometry" />
        </mxCell>
        <mxCell id="Mri-tDMAAlfSCZjpWTSw-10" value="Start" style="ellipse;whiteSpace=wrap;html=1;fontFamily=Montserrat;fontSource=https%3A%2F%2Ffonts.googleapis.com%2Fcss%3Ffamily%3DMontserrat;fontSize=15;opacity=40;gradientDirection=east;strokeColor=none;fillColor=#B2C9AB;fontColor=#46495D;sketch=1;" vertex="1" parent="Mri-tDMAAlfSCZjpWTSw-1">
          <mxGeometry x="180" y="170" width="120" height="40" as="geometry" />
        </mxCell>
        <mxCell id="Mri-tDMAAlfSCZjpWTSw-11" value="分析情報出力" style="rounded=1;whiteSpace=wrap;html=1;labelBackgroundColor=none;sketch=1;strokeColor=#d6b656;fillColor=#fff2cc;fontSize=11;fontFamily=Noto Sans JP;fontSource=https%3A%2F%2Ffonts.googleapis.com%2Fcss%3Ffamily%3DNoto%2BSans%2BJP;" vertex="1" parent="Mri-tDMAAlfSCZjpWTSw-1">
          <mxGeometry x="180" y="337" width="120" height="40" as="geometry" />
        </mxCell>
        <mxCell id="Mri-tDMAAlfSCZjpWTSw-12" value="Scenario_F" style="text;html=1;align=center;verticalAlign=middle;resizable=0;points=[];autosize=1;fontSize=20;" vertex="1" parent="Mri-tDMAAlfSCZjpWTSw-1">
          <mxGeometry x="50" y="60" width="120" height="30" as="geometry" />
        </mxCell>
        <mxCell id="Mri-tDMAAlfSCZjpWTSw-13" value="" style="endArrow=none;html=1;fontSize=12;strokeWidth=2;strokeColor=#B3B3B3;" edge="1" parent="Mri-tDMAAlfSCZjpWTSw-1" target="Mri-tDMAAlfSCZjpWTSw-6">
          <mxGeometry width="50" height="50" relative="1" as="geometry">
            <mxPoint x="50" y="310" as="sourcePoint" />
            <mxPoint x="180" y="310" as="targetPoint" />
          </mxGeometry>
        </mxCell>
        <mxCell id="Mri-tDMAAlfSCZjpWTSw-14" style="edgeStyle=orthogonalEdgeStyle;rounded=0;orthogonalLoop=1;jettySize=auto;html=1;exitX=0.5;exitY=1;exitDx=0;exitDy=0;strokeColor=#808080;" edge="1" parent="Mri-tDMAAlfSCZjpWTSw-1" source="Mri-tDMAAlfSCZjpWTSw-11" target="Mri-tDMAAlfSCZjpWTSw-18">
          <mxGeometry relative="1" as="geometry">
            <mxPoint x="240" y="585" as="sourcePoint" />
            <mxPoint x="240" y="450" as="targetPoint" />
          </mxGeometry>
        </mxCell>
        <mxCell id="Mri-tDMAAlfSCZjpWTSw-15" value="End" style="ellipse;whiteSpace=wrap;html=1;fontFamily=Montserrat;fontSource=https%3A%2F%2Ffonts.googleapis.com%2Fcss%3Ffamily%3DMontserrat;fontSize=15;opacity=40;gradientDirection=east;strokeColor=none;fillColor=#B2C9AB;fontColor=#46495D;sketch=1;" vertex="1" parent="Mri-tDMAAlfSCZjpWTSw-1">
          <mxGeometry x="180" y="650" width="120" height="40" as="geometry" />
        </mxCell>
        <mxCell id="Mri-tDMAAlfSCZjpWTSw-16" value="&lt;div&gt;検索文書：&lt;/div&gt;&lt;div&gt;&lt;br&gt;&lt;/div&gt;&lt;div&gt;＜文書名＞&lt;br&gt;&lt;/div&gt;&lt;div&gt;* 管理文書作成依頼書&lt;/div&gt;&lt;div&gt;&lt;br&gt;&lt;/div&gt;&lt;div&gt;＜文書形式＞&lt;br&gt;&lt;/div&gt;&lt;div&gt;* カスタムテンプレート&lt;/div&gt;&lt;div&gt;&lt;br&gt;&lt;/div&gt;&lt;div&gt;＜作成日＞&lt;/div&gt;&lt;div&gt;* 2021年10月&lt;/div&gt;&lt;div&gt;&lt;br&gt;&lt;/div&gt;&lt;div&gt;&lt;br&gt;&lt;/div&gt;" style="whiteSpace=wrap;html=1;shape=mxgraph.basic.roundRectCallout;dx=30;dy=15;size=5;boundedLbl=1;verticalAlign=top;align=left;spacingLeft=5;" vertex="1" parent="Mri-tDMAAlfSCZjpWTSw-1">
          <mxGeometry x="350" y="187" width="200" height="190" as="geometry" />
        </mxCell>
        <mxCell id="Mri-tDMAAlfSCZjpWTSw-19" style="edgeStyle=orthogonalEdgeStyle;rounded=0;orthogonalLoop=1;jettySize=auto;html=1;exitX=0.5;exitY=1;exitDx=0;exitDy=0;strokeColor=#808080;" edge="1" parent="Mri-tDMAAlfSCZjpWTSw-1" source="Mri-tDMAAlfSCZjpWTSw-18" target="Mri-tDMAAlfSCZjpWTSw-15">
          <mxGeometry relative="1" as="geometry" />
        </mxCell>
        <mxCell id="Mri-tDMAAlfSCZjpWTSw-18" value="分析" style="rounded=1;whiteSpace=wrap;html=1;labelBackgroundColor=none;sketch=1;strokeColor=#d6b656;fillColor=#fff2cc;fontSize=11;fontFamily=Noto Sans JP;fontSource=https%3A%2F%2Ffonts.googleapis.com%2Fcss%3Ffamily%3DNoto%2BSans%2BJP;" vertex="1" parent="Mri-tDMAAlfSCZjpWTSw-1">
          <mxGeometry x="180" y="470" width="120" height="40" as="geometry" />
        </mxCell>
        <mxCell id="Mri-tDMAAlfSCZjpWTSw-17" value="Untitled Layer" style="" parent="Mri-tDMAAlfSCZjpWTSw-0" />
      </root>
    </mxGraphModel>
  </diagram>
</mxfile>
